<svg width="50" height="50" viewBox="0 0 50 50" fill="none" xmlns="http://www.w3.org/2000/svg">
<path d="M46.6667 41.6673H3.33333C1.49306 41.6673 0 40.1743 0 38.334V11.6673C0 9.82704 1.49306 8.33398 3.33333 8.33398H46.6667C48.5069 8.33398 50 9.82704 50 11.6673V38.334C50 40.1743 48.5069 41.6673 46.6667 41.6673ZM39.5611 35.7215C39.5556 35.7215 39.5486 35.7215 39.5417 35.7215C39.1417 35.7215 38.7819 35.8923 38.5306 36.1645L38.5292 36.1659C38.2667 36.4548 38.1056 36.8395 38.1056 37.2618C38.1056 37.684 38.2667 38.0701 38.5306 38.359L38.5292 38.3576C38.7819 38.6312 39.1417 38.802 39.5417 38.802H39.5611H39.5597C39.5806 38.8034 39.6069 38.8048 39.6319 38.8048C39.9847 38.8048 40.2972 38.634 40.4917 38.3715L40.4931 38.3687V38.7382H41.1222V34.6145H40.4931V36.1562C40.2903 35.8909 39.9736 35.7201 39.6167 35.7201C39.5972 35.7201 39.5778 35.7201 39.5583 35.7215H39.5611ZM33.6583 35.7215C33.6486 35.7215 33.6375 35.7215 33.6264 35.7215C33.225 35.7215 32.8625 35.8882 32.6056 36.1562C32.3431 36.4493 32.1819 36.8368 32.1819 37.2632C32.1819 37.6895 32.3431 38.0784 32.6069 38.3715L32.6056 38.3701C32.8639 38.6382 33.2264 38.8048 33.6278 38.8048H33.6611H33.6597C33.6792 38.8062 33.7 38.8062 33.7222 38.8062C34.0708 38.8062 34.3792 38.6354 34.5681 38.3729L34.5708 38.3701V38.7395H35.2236V35.809H34.5722V36.1562C34.3736 35.8909 34.0597 35.7201 33.7069 35.7201C33.6903 35.7201 33.6736 35.7201 33.6583 35.7215H33.6611H33.6583ZM30.8139 35.7215C30.7958 35.7201 30.7764 35.7201 30.7556 35.7201C29.9042 35.7201 29.2139 36.4104 29.2139 37.2618C29.2139 38.1132 29.9042 38.8034 30.7556 38.8034C30.7764 38.8034 30.7972 38.8034 30.8167 38.802H30.8139C30.8306 38.802 30.85 38.8034 30.8708 38.8034C31.2458 38.8034 31.5889 38.6729 31.8597 38.4534L31.8569 38.4562L31.5528 37.9354C31.3597 38.0882 31.1153 38.1854 30.85 38.1965H30.8472C30.8306 38.1979 30.8097 38.1979 30.7903 38.1979C30.5417 38.1979 30.3167 38.0979 30.1528 37.9354C29.9986 37.7562 29.9042 37.5201 29.9042 37.2632C29.9042 37.0062 29.9986 36.7701 30.1542 36.5895L30.1528 36.5909C30.3083 36.4298 30.525 36.3298 30.7653 36.3298H30.7944H30.7931C31.0806 36.3312 31.3444 36.4284 31.5556 36.5923L31.5528 36.5895L31.8569 36.0687C31.5819 35.8507 31.2306 35.7201 30.8486 35.7201C30.8375 35.7201 30.825 35.7201 30.8139 35.7201H30.8153L30.8139 35.7215ZM25.1472 35.7215C25.1361 35.7215 25.125 35.7215 25.1125 35.7215C24.7153 35.7215 24.3583 35.8882 24.1056 36.1562C23.85 36.4326 23.6917 36.8034 23.6917 37.2118C23.6917 37.2312 23.6917 37.2507 23.6931 37.2701V37.2673C23.6917 37.2868 23.6917 37.309 23.6917 37.3312C23.6917 37.7409 23.8542 38.1132 24.1167 38.3854C24.3806 38.6479 24.7444 38.809 25.1458 38.809C25.1611 38.809 25.1778 38.809 25.1931 38.8076H25.1903C25.2069 38.8076 25.2278 38.809 25.2472 38.809C25.6819 38.809 26.0792 38.652 26.3875 38.3923L26.3847 38.3951L26.0806 37.9187C25.8556 38.1173 25.5597 38.2409 25.2361 38.2437H25.2347C25.2125 38.2451 25.1875 38.2465 25.1625 38.2465C24.7444 38.2465 24.3986 37.934 24.3458 37.5312V37.527H26.5375V37.2673C26.5389 37.2451 26.5389 37.2201 26.5389 37.1951C26.5389 36.7937 26.3903 36.427 26.1444 36.1479L26.1458 36.1493C25.9069 35.8854 25.5625 35.7201 25.1792 35.7201C25.1694 35.7201 25.1583 35.7201 25.1486 35.7201H25.15L25.1472 35.7215ZM20.8736 35.809V36.3951H21.4806V37.7201C21.4806 38.4395 21.8236 38.8048 22.5 38.8048H22.5236C22.8042 38.8048 23.0639 38.7215 23.2819 38.5798L23.2764 38.5826L23.1014 38.0395C22.9389 38.1326 22.7444 38.1882 22.5375 38.1923H22.5361C22.2611 38.1923 22.1222 38.0326 22.1222 37.7159V36.3965H23.1639V35.8104H22.1222V34.9215H21.4708V35.8104L20.8736 35.809ZM18.1417 37.934L17.8597 38.434C18.2028 38.6659 18.625 38.8034 19.0792 38.8034H19.1208H19.1181C19.1458 38.8048 19.1778 38.8062 19.2097 38.8062C19.5417 38.8062 19.8514 38.7076 20.1111 38.5382L20.1042 38.5423C20.3208 38.3937 20.4625 38.1465 20.4625 37.8659C20.4625 37.859 20.4625 37.8534 20.4625 37.8465V37.8479C20.4625 37.359 20.1194 37.0701 19.4431 36.9798L19.1403 36.9354C18.8069 36.8784 18.6403 36.777 18.6403 36.6326C18.6403 36.4159 18.8222 36.3076 19.1833 36.3076H19.1903C19.5306 36.3076 19.85 36.3965 20.1264 36.552L20.1167 36.5465L20.3778 36.0257C20.0583 35.834 19.6722 35.7201 19.2597 35.7201C19.2333 35.7201 19.2056 35.7201 19.1792 35.7215H19.1833C19.1611 35.7201 19.1347 35.7201 19.1083 35.7201C18.8028 35.7201 18.5194 35.8187 18.2903 35.9854L18.2944 35.9826C18.0958 36.1382 17.9694 36.3784 17.9694 36.6493V36.6784V36.677C17.9694 37.152 18.3125 37.4368 18.9889 37.5229L19.2708 37.5673C19.6167 37.6257 19.7917 37.727 19.7917 37.8715C19.7917 38.1159 19.5694 38.2409 19.1181 38.2409C19.1139 38.2409 19.1097 38.2409 19.1056 38.2409C18.7444 38.2409 18.4097 38.127 18.1361 37.9326L18.1417 37.9368V37.934ZM15.6667 35.7201C15.6569 35.7201 15.6444 35.7201 15.6319 35.7201C15.2361 35.7201 14.8778 35.8868 14.6264 36.1548C14.3694 36.4493 14.2125 36.8382 14.2125 37.2618C14.2125 37.6854 14.3694 38.0743 14.6278 38.3715L14.6264 38.3701C14.8792 38.6382 15.2361 38.8048 15.6333 38.8048H15.6694H15.6681C15.6847 38.8062 15.7042 38.8062 15.725 38.8062C16.0819 38.8062 16.4 38.6368 16.6014 38.3729L16.6028 38.3701V38.7395H17.2319V35.809H16.6028V36.1562C16.3847 35.8895 16.0569 35.7215 15.6889 35.7215C15.6819 35.7215 15.675 35.7215 15.6667 35.7215H15.6681L15.6667 35.7201ZM36.0667 35.8076V38.7382H36.6958V37.0895C36.6958 36.5868 36.9069 36.3312 37.325 36.3312H37.3389C37.4764 36.3312 37.6069 36.3632 37.7222 36.4201L37.7167 36.4173L37.9111 35.809C37.7889 35.7534 37.6472 35.7215 37.4972 35.7215C37.4819 35.7215 37.4681 35.7215 37.4528 35.7229H37.4556C37.4486 35.7229 37.4403 35.7229 37.4319 35.7229C37.1167 35.7229 36.8417 35.8965 36.6986 36.1534L36.6958 36.1576V35.8104L36.0667 35.8076ZM27.1917 35.8076V38.7382H27.8431V37.0895C27.8431 36.5868 28.0542 36.3312 28.4722 36.3312H28.4861C28.6236 36.3312 28.7542 36.3632 28.8694 36.4201L28.8639 36.4173L29.0597 35.809C28.9319 35.7534 28.7847 35.7215 28.6292 35.7215C28.6208 35.7215 28.6125 35.7215 28.6028 35.7215H28.6042C28.5972 35.7215 28.5875 35.7215 28.5792 35.7215C28.2639 35.7215 27.9903 35.8951 27.8472 36.152L27.8444 36.1562V35.809L27.1917 35.8076ZM12.3472 36.3284C12.7792 36.3284 12.9986 36.5909 12.9986 37.1062V38.734H13.65V36.8895C13.65 36.8757 13.6514 36.8604 13.6514 36.8437C13.6514 36.5382 13.5306 36.2618 13.3347 36.0576C13.1139 35.8507 12.8153 35.7243 12.4889 35.7243C12.4847 35.7243 12.4806 35.7243 12.4764 35.7243C12.4556 35.7229 12.4306 35.7215 12.4056 35.7215C12.0083 35.7215 11.6583 35.9284 11.4597 36.2409L11.4569 36.2451C11.2722 35.9298 10.9361 35.7215 10.55 35.7215C10.5264 35.7215 10.5014 35.7229 10.4778 35.7243H10.4806C10.4764 35.7243 10.4722 35.7243 10.4681 35.7243C10.125 35.7243 9.82083 35.8951 9.63611 36.1562L9.63333 36.159V35.8118H8.98472V38.7423H9.63611V37.1118C9.63611 36.5937 9.87778 36.334 10.3528 36.334C10.7847 36.334 11.0042 36.5965 11.0042 37.1118V38.7395H11.6333V37.1118C11.6333 36.5923 11.875 36.334 12.3486 36.334L12.3472 36.3284ZM31.8139 11.1118C31.8 11.1118 31.7847 11.1118 31.7681 11.1118C29.5111 11.1118 27.4153 11.8007 25.6778 12.9812L25.7153 12.9576C27.5153 14.4243 28.8611 16.3868 29.5458 18.6368L29.5681 18.7201C29.8958 19.7548 30.0833 20.9437 30.0833 22.1784C30.0833 23.3993 29.8986 24.5757 29.5569 25.684L29.5792 25.6007C28.8792 27.9312 27.5278 29.8882 25.7375 31.3201L25.7153 31.3382C27.4264 32.4937 29.5361 33.1826 31.8056 33.1826C33.3611 33.1826 34.8403 32.859 36.1806 32.2757L36.1097 32.3034C38.7736 31.1743 40.8514 29.0965 41.9528 26.5048L41.9792 26.434C42.5347 25.1701 42.8583 23.6965 42.8583 22.1479C42.8583 20.5993 42.5347 19.1257 41.9514 17.7923L41.9792 17.8618C40.85 15.1965 38.7667 13.1187 36.1694 12.0215L36.0986 11.9951C34.8389 11.4395 33.3708 11.1159 31.8278 11.1159C31.8222 11.1159 31.8181 11.1159 31.8125 11.1159H31.8139V11.1118ZM18.1861 11.1118C18.1819 11.1118 18.1764 11.1118 18.1708 11.1118C16.6278 11.1118 15.1583 11.4354 13.8306 12.0173L13.9 11.9895C11.2292 13.1132 9.14722 15.1923 8.04444 17.7882L8.01805 17.859C7.4625 19.1229 7.13889 20.5965 7.13889 22.1451C7.13889 23.6937 7.4625 25.1673 8.04583 26.5007L8.01805 26.4312C9.14722 29.0951 11.225 31.1729 13.8167 32.2743L13.8875 32.3007C15.1569 32.8562 16.6375 33.1798 18.1917 33.1798C20.4625 33.1798 22.5708 32.4909 24.3208 31.3104L24.2819 31.3354C22.4722 29.8757 21.1208 27.9104 20.4403 25.6562L20.4194 25.5743C20.1014 24.552 19.9181 23.377 19.9181 22.159C19.9181 18.4576 21.6097 15.1507 24.2625 12.9701L24.2833 12.9534C22.5847 11.7979 20.4889 11.109 18.2319 11.109C18.2153 11.109 18.1986 11.109 18.1819 11.109H18.1847L18.1861 11.1118ZM25 13.477C23.2542 14.834 21.95 16.6812 21.2875 18.8132L21.2667 18.8895C20.95 19.8687 20.7667 20.9965 20.7667 22.1659C20.7667 23.3243 20.9458 24.4395 21.2778 25.4882L21.2569 25.4104C21.9361 27.6201 23.2458 29.4673 24.975 30.7979L25 30.8159C26.7542 29.4673 28.0639 27.6201 28.7236 25.4868L28.7444 25.4118C29.0556 24.4409 29.2347 23.3243 29.2347 22.1659C29.2347 20.9951 29.0514 19.8687 28.7139 18.8104L28.7347 18.8882C28.0514 16.6798 26.7472 14.8326 25.0264 13.4937L25.0014 13.4757L25 13.477ZM39.6472 38.1951C39.6403 38.1951 39.6319 38.1951 39.6236 38.1951C39.3806 38.1951 39.1611 38.0909 39.0083 37.9243C38.8528 37.7493 38.7583 37.5159 38.7583 37.2618C38.7583 37.0076 38.8528 36.7757 39.0097 36.5979L39.0083 36.5993C39.1708 36.4312 39.3972 36.327 39.6486 36.327C39.9 36.327 40.1278 36.4312 40.2889 36.5993C40.4431 36.777 40.5375 37.0104 40.5375 37.2659C40.5375 37.5215 40.4431 37.7548 40.2875 37.934L40.2889 37.9326C40.1333 38.0951 39.9139 38.1951 39.6722 38.1951C39.6639 38.1951 39.6556 38.1951 39.6472 38.1951H39.6486H39.6472ZM33.7236 38.1951C33.7139 38.1951 33.7042 38.1951 33.6931 38.1951C33.4569 38.1951 33.2444 38.0951 33.0944 37.9354C32.9458 37.7534 32.8556 37.5187 32.8556 37.2632C32.8556 37.0076 32.9458 36.7729 33.0958 36.5882L33.0944 36.5895C33.2444 36.4284 33.4569 36.3284 33.6931 36.3284H33.725H33.7236H33.7486C33.9917 36.3284 34.2111 36.4326 34.3625 36.5993C34.5181 36.7673 34.6125 36.9923 34.6125 37.2395V37.2673V37.2659C34.6125 37.277 34.6139 37.2909 34.6139 37.3034C34.6139 37.5479 34.5236 37.7701 34.3736 37.9409L34.375 37.9395C34.2208 38.0979 34.0069 38.1951 33.7694 38.1951C33.7542 38.1951 33.7375 38.1951 33.7222 38.1937H33.725L33.7236 38.1951ZM15.7542 38.1951C15.7417 38.1951 15.7278 38.1965 15.7139 38.1965C15.4736 38.1965 15.2569 38.0965 15.1042 37.9354C14.9556 37.7534 14.8653 37.5187 14.8653 37.2632C14.8653 37.0076 14.9556 36.7729 15.1056 36.5882L15.1042 36.5895C15.2583 36.4284 15.475 36.3284 15.7153 36.3284C15.7292 36.3284 15.7444 36.3284 15.7583 36.3298H15.7569H15.7889C16.0264 36.3298 16.2403 36.434 16.3861 36.6007L16.3875 36.602C16.5347 36.7826 16.625 37.0145 16.625 37.2687C16.625 37.5229 16.5347 37.7548 16.3861 37.9368L16.3875 37.9354C16.2375 38.0965 16.0236 38.1965 15.7861 38.1965C15.7764 38.1965 15.7653 38.1965 15.7556 38.1965H15.7569L15.7542 38.1951ZM25.8889 37.0007H24.3708C24.4056 36.609 24.7319 36.3034 25.1306 36.3034C25.5292 36.3034 25.8556 36.609 25.8903 36.9979V37.0007H25.8889Z" fill="#F5F3EA"/>
</svg>
