<svg width="161" height="65" viewBox="0 0 161 65" fill="none" xmlns="http://www.w3.org/2000/svg">
<path fill-rule="evenodd" clip-rule="evenodd" d="M161 0H0V65H161V0ZM154.748 6.25H6.25243V58.75H154.748V6.25Z" fill="#DFBE22"/>
<path d="M22.4406 18.3125C22.5106 18.3125 22.5675 18.3388 22.6113 18.3913C22.6638 18.435 22.6901 18.4919 22.6901 18.5619V27.2244C22.6901 27.2944 22.6638 27.3556 22.6113 27.4081C22.5675 27.4519 22.5106 27.4738 22.4406 27.4738H21.4164C21.3464 27.4738 21.2851 27.4519 21.2326 27.4081C21.1888 27.3556 21.167 27.2944 21.167 27.2244V22.3944C21.167 22.3244 21.1363 22.2631 21.0751 22.2106C21.0225 22.1581 20.9613 22.1319 20.8912 22.1319H18.8823C18.8123 22.1319 18.7467 22.1581 18.6854 22.2106C18.6329 22.2631 18.6066 22.3244 18.6066 22.3944V27.2244C18.6066 27.2944 18.5803 27.3556 18.5278 27.4081C18.484 27.4519 18.4272 27.4738 18.3571 27.4738H17.333C17.263 27.4738 17.2017 27.4519 17.1492 27.4081C17.1054 27.3556 17.0835 27.2944 17.0835 27.2244V18.5619C17.0835 18.4919 17.1054 18.435 17.1492 18.3913C17.2017 18.3388 17.263 18.3125 17.333 18.3125H18.3571C18.4272 18.3125 18.484 18.3388 18.5278 18.3913C18.5803 18.435 18.6066 18.4919 18.6066 18.5619V20.5962C18.6066 20.675 18.6329 20.7406 18.6854 20.7931C18.7467 20.8456 18.8123 20.8719 18.8823 20.8719H20.8912C20.9613 20.8719 21.0225 20.8456 21.0751 20.7931C21.1363 20.7406 21.167 20.675 21.167 20.5962V18.5619C21.167 18.4919 21.1888 18.435 21.2326 18.3913C21.2851 18.3388 21.3464 18.3125 21.4164 18.3125H22.4406Z" fill="#DFBE22"/>
<path d="M31.918 27.2113C31.9355 27.2813 31.9267 27.3425 31.8917 27.395C31.8567 27.4475 31.8042 27.4738 31.7341 27.4738H30.6312C30.5174 27.4738 30.4518 27.4213 30.4343 27.3163L30.0272 25.8463C30.001 25.7413 29.9353 25.6888 29.8303 25.6888H27.3881C27.2743 25.6888 27.2086 25.7413 27.1911 25.8463L26.7841 27.3163C26.7578 27.4213 26.6922 27.4738 26.5871 27.4738H25.4842C25.4142 27.4738 25.3704 27.4475 25.3529 27.395C25.3442 27.3425 25.3485 27.2813 25.366 27.2113L27.7951 18.4963C27.8126 18.3913 27.8783 18.3388 27.9921 18.3388H29.2132C29.3007 18.3388 29.3663 18.3913 29.4101 18.4963L31.918 27.2113ZM29.3445 24.4288C29.4145 24.4288 29.4714 24.4025 29.5151 24.35C29.5589 24.2975 29.5677 24.2363 29.5414 24.1663L28.7799 21.7906C28.7536 21.6944 28.6879 21.6462 28.5829 21.6462C28.4779 21.6462 28.4122 21.6944 28.386 21.7906L27.6507 24.1663C27.6332 24.2363 27.6419 24.2975 27.6769 24.35C27.7207 24.4025 27.7776 24.4288 27.8476 24.4288H29.3445Z" fill="#DFBE22"/>
<path d="M40.2147 25.5575C40.2848 25.5575 40.346 25.5838 40.3986 25.6363C40.4511 25.6888 40.4773 25.75 40.4773 25.82V27.2113C40.4773 27.29 40.4511 27.3556 40.3986 27.4081C40.346 27.4606 40.2848 27.4869 40.2147 27.4869H39.2956C39.2256 27.4869 39.1643 27.4606 39.1118 27.4081C39.0593 27.3556 39.033 27.29 39.033 27.2113C39.033 27.1588 39.0111 27.115 38.9674 27.08C38.9324 27.0362 38.8842 27.0144 38.8229 27.0144H34.989C34.9014 27.0144 34.827 26.9881 34.7657 26.9356C34.7132 26.8744 34.687 26.8 34.687 26.7125V18.6275C34.687 18.54 34.7132 18.47 34.7657 18.4175C34.827 18.3562 34.9014 18.3256 34.989 18.3256H35.8293C35.9168 18.3256 35.9868 18.3562 36.0394 18.4175C36.1006 18.47 36.1313 18.54 36.1313 18.6275V25.2556C36.1313 25.3431 36.1575 25.4175 36.2101 25.4788C36.2713 25.5313 36.3457 25.5575 36.4333 25.5575H38.2452C38.3328 25.5575 38.4028 25.5313 38.4553 25.4788C38.5166 25.4175 38.5472 25.3431 38.5472 25.2556V18.6275C38.5472 18.54 38.5735 18.47 38.626 18.4175C38.6873 18.3562 38.7617 18.3256 38.8492 18.3256H39.6895C39.7771 18.3256 39.8471 18.3562 39.8996 18.4175C39.9609 18.47 39.9915 18.54 39.9915 18.6275V25.3475C39.9915 25.4875 40.0616 25.5575 40.2016 25.5575H40.2147Z" fill="#DFBE22"/>
<path d="M45.2694 19.4675C45.2607 19.4675 45.2563 19.4719 45.2563 19.4806C45.2563 19.4806 45.2519 19.4806 45.2432 19.4806C45.1556 19.5944 45.1119 19.7212 45.1119 19.8613V25.8069C45.1119 25.9469 45.1512 26.065 45.23 26.1613C45.3176 26.2575 45.3963 26.3319 45.4664 26.3844C45.5714 26.4456 45.6239 26.5462 45.6239 26.6862V27.1588C45.6239 27.255 45.5933 27.3338 45.532 27.395C45.4707 27.4563 45.392 27.4869 45.2957 27.4869H43.3918C43.2955 27.4869 43.2167 27.4563 43.1555 27.395C43.0942 27.3338 43.0636 27.255 43.0636 27.1588V26.6994C43.0636 26.5506 43.1161 26.4456 43.2211 26.3844C43.2999 26.3319 43.3787 26.2575 43.4575 26.1613C43.545 26.065 43.5888 25.9469 43.5888 25.8069V19.8613C43.5888 19.7212 43.5319 19.5856 43.4181 19.4544C43.3218 19.3581 43.2736 19.24 43.2736 19.1V18.6537C43.2736 18.5575 43.3043 18.4787 43.3656 18.4175C43.4356 18.3562 43.5144 18.3256 43.6019 18.3256H45.0856C45.1819 18.3256 45.2607 18.3562 45.3219 18.4175C45.3832 18.4787 45.4138 18.5575 45.4138 18.6537V19.1263C45.4138 19.2575 45.3657 19.3713 45.2694 19.4675Z" fill="#DFBE22"/>
<path d="M52.4829 18.3388C52.7105 18.3388 52.9249 18.3825 53.1262 18.47C53.3363 18.5575 53.5158 18.6756 53.6646 18.8244C53.8134 18.9731 53.9316 19.1525 54.0191 19.3625C54.1066 19.5638 54.1504 19.7781 54.1504 20.0056V24.6781C54.1504 25.0631 54.076 25.4262 53.9272 25.7675C53.7871 26.1 53.5902 26.3931 53.3363 26.6469C53.0825 26.9006 52.7849 27.1019 52.4435 27.2506C52.1021 27.3994 51.7388 27.4738 51.3537 27.4738C50.9685 27.4738 50.6053 27.3994 50.2639 27.2506C49.9312 27.1019 49.638 26.9006 49.3842 26.6469C49.1303 26.3931 48.929 26.1 48.7802 25.7675C48.6314 25.4262 48.557 25.0631 48.557 24.6781V20.0056C48.557 19.7781 48.6007 19.5638 48.6883 19.3625C48.7758 19.1525 48.894 18.9731 49.0428 18.8244C49.2003 18.6756 49.3798 18.5575 49.5811 18.47C49.7824 18.3825 49.9969 18.3388 50.2245 18.3388H52.4829ZM52.6273 20.0844C52.6273 19.9531 52.5792 19.8394 52.4829 19.7431C52.3953 19.6469 52.2815 19.5987 52.1415 19.5987H50.5659C50.4346 19.5987 50.3208 19.6469 50.2245 19.7431C50.137 19.8394 50.0932 19.9531 50.0932 20.0844V24.7831C50.0932 25.1069 50.2026 25.3825 50.4214 25.61C50.649 25.8288 50.9248 25.9381 51.2486 25.9381H51.4718C51.7957 25.9381 52.0671 25.8288 52.2859 25.61C52.5135 25.3825 52.6273 25.1069 52.6273 24.7831V20.0844Z" fill="#DFBE22"/>
<path d="M62.4592 18.3125C62.5292 18.3125 62.5861 18.3388 62.6299 18.3913C62.6824 18.435 62.7086 18.4919 62.7086 18.5619V27.2244C62.7086 27.2944 62.6824 27.3556 62.6299 27.4081C62.5861 27.4519 62.5292 27.4738 62.4592 27.4738H61.435C61.365 27.4738 61.3037 27.4519 61.2512 27.4081C61.2074 27.3556 61.1856 27.2944 61.1856 27.2244V22.3944C61.1856 22.3244 61.1549 22.2631 61.0936 22.2106C61.0411 22.1581 60.9799 22.1319 60.9098 22.1319H58.9009C58.8309 22.1319 58.7652 22.1581 58.704 22.2106C58.6514 22.2631 58.6252 22.3244 58.6252 22.3944V27.2244C58.6252 27.2944 58.5989 27.3556 58.5464 27.4081C58.5026 27.4519 58.4457 27.4738 58.3757 27.4738H57.3516C57.2815 27.4738 57.2203 27.4519 57.1677 27.4081C57.124 27.3556 57.1021 27.2944 57.1021 27.2244V18.5619C57.1021 18.4919 57.124 18.435 57.1677 18.3913C57.2203 18.3388 57.2815 18.3125 57.3516 18.3125H58.3757C58.4457 18.3125 58.5026 18.3388 58.5464 18.3913C58.5989 18.435 58.6252 18.4919 58.6252 18.5619V20.5962C58.6252 20.675 58.6514 20.7406 58.704 20.7931C58.7652 20.8456 58.8309 20.8719 58.9009 20.8719H60.9098C60.9799 20.8719 61.0411 20.8456 61.0936 20.7931C61.1549 20.7406 61.1856 20.675 61.1856 20.5962V18.5619C61.1856 18.4919 61.2074 18.435 61.2512 18.3913C61.3037 18.3388 61.365 18.3125 61.435 18.3125H62.4592Z" fill="#DFBE22"/>
<path d="M71.9365 27.2113C71.954 27.2813 71.9453 27.3425 71.9103 27.395C71.8753 27.4475 71.8227 27.4738 71.7527 27.4738H70.6498C70.536 27.4738 70.4703 27.4213 70.4528 27.3163L70.0458 25.8463C70.0195 25.7413 69.9539 25.6888 69.8489 25.6888H67.4067C67.2929 25.6888 67.2272 25.7413 67.2097 25.8463L66.8027 27.3163C66.7764 27.4213 66.7108 27.4738 66.6057 27.4738H65.5028C65.4328 27.4738 65.389 27.4475 65.3715 27.395C65.3627 27.3425 65.3671 27.2813 65.3846 27.2113L67.8137 18.4963C67.8312 18.3913 67.8968 18.3388 68.0106 18.3388H69.2317C69.3193 18.3388 69.3849 18.3913 69.4287 18.4963L71.9365 27.2113ZM69.363 24.4288C69.4331 24.4288 69.49 24.4025 69.5337 24.35C69.5775 24.2975 69.5862 24.2363 69.56 24.1663L68.7984 21.7906C68.7722 21.6944 68.7065 21.6462 68.6015 21.6462C68.4965 21.6462 68.4308 21.6944 68.4045 21.7906L67.6693 24.1663C67.6518 24.2363 67.6605 24.2975 67.6955 24.35C67.7393 24.4025 67.7962 24.4288 67.8662 24.4288H69.363Z" fill="#DFBE22"/>
<path d="M79.6556 18.3256C79.7519 18.3256 79.8307 18.3606 79.8919 18.4306C79.962 18.4919 79.997 18.5706 79.997 18.6669V27.1456C79.997 27.2419 79.962 27.325 79.8919 27.395C79.8307 27.4563 79.7519 27.4869 79.6556 27.4869H78.8021C78.7059 27.4869 78.6227 27.4563 78.5527 27.395C78.4914 27.325 78.4608 27.2419 78.4608 27.1456V19.8481C78.4608 19.7781 78.4345 19.7213 78.382 19.6775C78.3382 19.625 78.2813 19.5987 78.2113 19.5987H77.4235C77.3535 19.5987 77.2922 19.625 77.2397 19.6775C77.1959 19.7213 77.174 19.7781 77.174 19.8481C77.1565 20.8019 77.1127 21.6375 77.0427 22.355C76.9727 23.0725 76.8851 23.7069 76.7801 24.2581C76.6838 24.8094 76.5744 25.3038 76.4519 25.7413C76.3293 26.17 76.2024 26.5813 76.0711 26.975C76.0273 27.1238 75.9398 27.2463 75.8085 27.3425C75.6859 27.43 75.5459 27.4738 75.3883 27.4738H74.7318C74.6355 27.4738 74.5524 27.4431 74.4823 27.3819C74.4211 27.3119 74.3904 27.2287 74.3904 27.1325V26.2925C74.3904 26.1963 74.4211 26.1175 74.4823 26.0563C74.5524 25.9863 74.6355 25.9512 74.7318 25.9512C74.8193 25.9512 74.8762 25.9075 74.9025 25.82C74.99 25.4875 75.0819 25.1288 75.1782 24.7438C75.2745 24.35 75.3621 23.9081 75.4408 23.4181C75.5196 22.9281 75.5853 22.3725 75.6378 21.7512C75.6903 21.1212 75.7166 20.4037 75.7166 19.5987V18.6669C75.7166 18.5706 75.7472 18.4919 75.8085 18.4306C75.8785 18.3606 75.9617 18.3256 76.058 18.3256H79.6556Z" fill="#DFBE22"/>
<path d="M88.522 25.715C88.522 25.96 88.4739 26.1919 88.3776 26.4106C88.29 26.6206 88.1675 26.8044 88.0099 26.9619C87.8524 27.1194 87.6642 27.2463 87.4453 27.3425C87.2353 27.43 87.012 27.4738 86.7757 27.4738H83.4013C83.27 27.4738 83.1562 27.43 83.0599 27.3425C82.9724 27.2463 82.9286 27.1325 82.9286 27.0013V18.6406C82.9286 18.5531 82.9548 18.4831 83.0074 18.4306C83.0686 18.3694 83.143 18.3388 83.2306 18.3388H84.1628C84.2503 18.3388 84.3204 18.3694 84.3729 18.4306C84.4342 18.4831 84.4648 18.5531 84.4648 18.6406V21.8038C84.4648 21.9 84.4954 21.9831 84.5567 22.0531C84.618 22.1144 84.6968 22.145 84.7931 22.145H86.7757C87.012 22.145 87.2353 22.1931 87.4453 22.2894C87.6642 22.3769 87.8524 22.4994 88.0099 22.6569C88.1675 22.8144 88.29 23.0025 88.3776 23.2213C88.4739 23.4313 88.522 23.6544 88.522 23.8906V25.715ZM86.9989 23.9037C86.9989 23.7637 86.9508 23.6456 86.8545 23.5494C86.7582 23.4531 86.64 23.405 86.5 23.405L84.7931 23.3919C84.6968 23.3919 84.618 23.4269 84.5567 23.4969C84.4954 23.5581 84.4648 23.6369 84.4648 23.7331V25.5706C84.4648 25.8331 84.5961 25.9644 84.8587 25.9644H86.5C86.64 25.9644 86.7582 25.9163 86.8545 25.82C86.9508 25.7238 86.9989 25.6056 86.9989 25.4656V23.9037Z" fill="#DFBE22"/>
<path d="M96.8308 18.3125C96.9008 18.3125 96.9577 18.3388 97.0015 18.3913C97.054 18.435 97.0803 18.4919 97.0803 18.5619V27.2244C97.0803 27.2944 97.054 27.3556 97.0015 27.4081C96.9577 27.4519 96.9008 27.4738 96.8308 27.4738H95.8066C95.7366 27.4738 95.6753 27.4519 95.6228 27.4081C95.5791 27.3556 95.5572 27.2944 95.5572 27.2244V22.3944C95.5572 22.3244 95.5265 22.2631 95.4653 22.2106C95.4127 22.1581 95.3515 22.1319 95.2814 22.1319H93.2725C93.2025 22.1319 93.1369 22.1581 93.0756 22.2106C93.0231 22.2631 92.9968 22.3244 92.9968 22.3944V27.2244C92.9968 27.2944 92.9706 27.3556 92.918 27.4081C92.8743 27.4519 92.8174 27.4738 92.7473 27.4738H91.7232C91.6532 27.4738 91.5919 27.4519 91.5394 27.4081C91.4956 27.3556 91.4737 27.2944 91.4737 27.2244V18.5619C91.4737 18.4919 91.4956 18.435 91.5394 18.3913C91.5919 18.3388 91.6532 18.3125 91.7232 18.3125H92.7473C92.8174 18.3125 92.8743 18.3388 92.918 18.3913C92.9706 18.435 92.9968 18.4919 92.9968 18.5619V20.5962C92.9968 20.675 93.0231 20.7406 93.0756 20.7931C93.1369 20.8456 93.2025 20.8719 93.2725 20.8719H95.2814C95.3515 20.8719 95.4127 20.8456 95.4653 20.7931C95.5265 20.7406 95.5572 20.675 95.5572 20.5962V18.5619C95.5572 18.4919 95.5791 18.435 95.6228 18.3913C95.6753 18.3388 95.7366 18.3125 95.8066 18.3125H96.8308Z" fill="#DFBE22"/>
<path d="M100.255 18.3256H101.279C101.349 18.3256 101.406 18.3519 101.45 18.4044C101.503 18.4481 101.529 18.505 101.529 18.575V23.4313C101.529 23.5188 101.568 23.5713 101.647 23.5888C101.726 23.6063 101.787 23.58 101.831 23.51C102.015 23.1513 102.198 22.7838 102.382 22.4075C102.566 22.0313 102.746 21.655 102.921 21.2787C103.104 20.9025 103.284 20.535 103.459 20.1762C103.634 19.8175 103.805 19.4762 103.971 19.1525C103.989 19.1175 104.01 19.0519 104.037 18.9556C104.063 18.8594 104.076 18.7894 104.076 18.7456V18.575C104.076 18.505 104.102 18.4481 104.155 18.4044C104.207 18.3519 104.269 18.3256 104.339 18.3256H105.363C105.433 18.3256 105.49 18.3519 105.533 18.4044C105.586 18.4481 105.612 18.505 105.612 18.575V27.2375C105.612 27.3075 105.586 27.3688 105.533 27.4213C105.49 27.465 105.433 27.4869 105.363 27.4869H104.339C104.269 27.4869 104.207 27.465 104.155 27.4213C104.102 27.3688 104.076 27.3075 104.076 27.2375V22.3813C104.076 22.2938 104.037 22.2412 103.958 22.2237C103.879 22.2062 103.818 22.2325 103.774 22.3025C103.59 22.6787 103.402 23.0637 103.209 23.4575C103.026 23.8512 102.842 24.2406 102.658 24.6256C102.483 25.0019 102.312 25.3694 102.146 25.7281C101.98 26.0781 101.818 26.4063 101.66 26.7125C101.573 26.8788 101.529 27.0538 101.529 27.2375C101.529 27.3075 101.503 27.3688 101.45 27.4213C101.406 27.465 101.349 27.4869 101.279 27.4869H100.255C100.185 27.4869 100.124 27.465 100.071 27.4213C100.028 27.3688 100.006 27.3075 100.006 27.2375V18.575C100.006 18.505 100.028 18.4481 100.071 18.4044C100.124 18.3519 100.185 18.3256 100.255 18.3256Z" fill="#DFBE22"/>
<path d="M112.056 18.3913C112.091 18.3913 112.108 18.4087 112.108 18.4437C112.108 18.5925 112.03 18.7063 111.872 18.785C111.715 18.855 111.54 18.89 111.347 18.89C111.154 18.89 110.979 18.855 110.822 18.785C110.664 18.7063 110.585 18.5925 110.585 18.4437C110.585 18.4087 110.603 18.3913 110.638 18.3913H112.056ZM108.76 27.5C108.708 27.5 108.655 27.4869 108.603 27.4606C108.559 27.4256 108.546 27.36 108.563 27.2638C108.852 24.4375 108.861 21.6288 108.59 18.8375L108.576 18.8113C108.576 18.7588 108.572 18.7106 108.563 18.6669C108.563 18.6144 108.568 18.5706 108.576 18.5356C108.594 18.4919 108.625 18.4569 108.668 18.4306C108.712 18.4044 108.782 18.3913 108.878 18.3913H109.798C109.859 18.3825 109.916 18.4 109.968 18.4437C110.03 18.4787 110.065 18.5531 110.073 18.6669C110.161 19.4806 110.222 20.29 110.257 21.095C110.292 21.8913 110.301 22.7006 110.283 23.5231C110.301 23.5844 110.34 23.6106 110.402 23.6019C110.463 23.5931 110.502 23.5581 110.52 23.4969C110.704 23.1469 110.883 22.7706 111.058 22.3681C111.242 21.9656 111.421 21.5631 111.596 21.1606C111.78 20.7581 111.96 20.3644 112.135 19.9794C112.31 19.5944 112.476 19.2444 112.634 18.9294C112.712 18.7806 112.791 18.6538 112.87 18.5488C112.958 18.4438 113.089 18.3913 113.264 18.3913H113.881C113.951 18.3913 114.008 18.4175 114.052 18.47C114.104 18.5138 114.131 18.5706 114.131 18.6406V27.2506C114.131 27.4169 114.047 27.5 113.881 27.5H112.857C112.787 27.5 112.726 27.4781 112.673 27.4344C112.629 27.3819 112.607 27.3206 112.607 27.2506V22.4206C112.607 22.3419 112.568 22.2938 112.489 22.2763C112.41 22.25 112.349 22.2762 112.305 22.355C112.122 22.7312 111.929 23.1381 111.728 23.5756C111.535 24.0044 111.343 24.4375 111.15 24.875C110.966 25.3037 110.787 25.7194 110.612 26.1219C110.437 26.5244 110.27 26.8788 110.113 27.185C110.051 27.3075 109.981 27.395 109.903 27.4475C109.833 27.4913 109.776 27.5087 109.732 27.5H108.76Z" fill="#DFBE22"/>
<path d="M23.4516 37.7006C23.5216 37.7006 23.5829 37.7312 23.6354 37.7925C23.6967 37.845 23.7273 37.9106 23.7273 37.9894V46.5731C23.7273 46.6519 23.6967 46.7219 23.6354 46.7831C23.5829 46.8356 23.5216 46.8619 23.4516 46.8619H22.48C22.4012 46.8619 22.3312 46.8356 22.2699 46.7831C22.2174 46.7219 22.1911 46.6519 22.1911 46.5731V41.2838C22.1911 41.205 22.1517 41.1569 22.0729 41.1394C22.0029 41.1219 21.9504 41.1481 21.9154 41.2181L20.8125 43.5544C20.7337 43.7206 20.6024 43.8037 20.4186 43.8037C20.226 43.8037 20.0947 43.7206 20.0246 43.5544L18.9086 41.205C18.8736 41.135 18.8167 41.1088 18.7379 41.1263C18.6679 41.1438 18.6329 41.1919 18.6329 41.2706V46.5731C18.6329 46.6519 18.6022 46.7219 18.5409 46.7831C18.4884 46.8356 18.4228 46.8619 18.344 46.8619H17.3724C17.3023 46.8619 17.2367 46.8356 17.1754 46.7831C17.1229 46.7219 17.0966 46.6519 17.0966 46.5731V37.9894C17.0966 37.9106 17.1229 37.845 17.1754 37.7925C17.2367 37.7312 17.3023 37.7006 17.3724 37.7006H18.3046C18.4709 37.7006 18.5847 37.775 18.646 37.9237L20.2741 41.3756C20.3091 41.4369 20.3573 41.4675 20.4186 41.4675C20.4798 41.4675 20.5236 41.4369 20.5499 41.3756L22.178 37.9237C22.2568 37.775 22.3749 37.7006 22.5325 37.7006H23.4516Z" fill="#DFBE22"/>
<path d="M30.7235 37.9369C30.7323 37.8669 30.7585 37.81 30.8023 37.7662C30.8548 37.7225 30.9161 37.7006 30.9861 37.7006H31.984C32.0715 37.7006 32.1416 37.7312 32.1941 37.7925C32.2466 37.8537 32.2685 37.9281 32.2597 38.0156C32.1284 39.0219 31.9884 39.945 31.8396 40.785C31.6908 41.6162 31.5245 42.3775 31.3406 43.0688C31.1656 43.76 30.9686 44.3856 30.7498 44.9456C30.5397 45.5056 30.3077 46.0131 30.0539 46.4681C29.9839 46.5906 29.8876 46.6869 29.765 46.7569C29.6512 46.8269 29.5243 46.8619 29.3843 46.8619H27.8612C27.7649 46.8619 27.6861 46.8313 27.6248 46.77C27.5635 46.7088 27.5329 46.63 27.5329 46.5338V45.6544C27.5329 45.5581 27.5635 45.4794 27.6248 45.4181C27.6861 45.3569 27.7649 45.3263 27.8612 45.3263H28.7146C28.8459 45.3263 28.9422 45.265 29.0035 45.1425C29.0823 44.9675 29.1567 44.7881 29.2267 44.6044C29.3055 44.4206 29.3799 44.2281 29.4499 44.0269C29.4674 43.9569 29.4587 43.9 29.4236 43.8563C29.3886 43.8038 29.3405 43.7775 29.2792 43.7775H28.7146C28.6008 43.7775 28.4914 43.7469 28.3864 43.6856C28.2901 43.6244 28.2157 43.5456 28.1632 43.4494C27.7955 42.7931 27.4673 42.0275 27.1784 41.1525C26.8983 40.2688 26.6488 39.2275 26.43 38.0288C26.4125 37.9413 26.43 37.8669 26.4825 37.8056C26.535 37.7356 26.605 37.7006 26.6926 37.7006H27.6511C27.7999 37.7006 27.8874 37.775 27.9137 37.9237C28.0537 38.65 28.2201 39.3588 28.4126 40.05C28.6052 40.7413 28.8284 41.3888 29.0823 41.9925C29.1523 42.15 29.2048 42.2769 29.2398 42.3731C29.2836 42.4606 29.3667 42.5 29.4893 42.4913H29.6862C29.8263 42.4913 29.9182 42.4213 29.962 42.2813C30.137 41.5463 30.2859 40.8113 30.4084 40.0763C30.531 39.3325 30.636 38.6194 30.7235 37.9369Z" fill="#DFBE22"/>
<path d="M35.1388 39.7088C35.0776 39.7088 35.025 39.6869 34.9813 39.6431C34.9375 39.5994 34.9156 39.5469 34.9156 39.4856V39.0394C34.9156 38.8556 34.9506 38.6806 35.0207 38.5144C35.0907 38.3481 35.187 38.2038 35.3095 38.0813C35.4408 37.95 35.5896 37.8494 35.7559 37.7794C35.9223 37.7094 36.0973 37.6744 36.2811 37.6744H38.9334C39.231 37.6744 39.4936 37.775 39.7212 37.9763C39.9488 38.1688 40.1108 38.3963 40.207 38.6588C40.2246 38.6938 40.2289 38.7375 40.2202 38.79C40.2114 38.8425 40.1852 38.8862 40.1414 38.9212C40.1151 38.9387 40.0495 38.9825 39.9444 39.0525C39.8482 39.1225 39.7475 39.1969 39.6424 39.2756C39.5111 39.3631 39.3667 39.4594 39.2092 39.5644C39.1216 39.6169 39.0604 39.6256 39.0253 39.5906C38.9991 39.5556 38.9859 39.5075 38.9859 39.4463V39.1181C38.9859 39.0044 38.9291 38.9475 38.8153 38.9475H36.6225C36.5087 38.9475 36.4518 39.0044 36.4518 39.1181V39.4856C36.4518 39.5469 36.43 39.5994 36.3862 39.6431C36.3512 39.6869 36.2987 39.7088 36.2286 39.7088H35.1388ZM40.509 40.68C40.509 40.925 40.4521 41.1525 40.3383 41.3625C40.2333 41.5725 40.0933 41.7475 39.9182 41.8875C39.8744 41.9138 39.8525 41.9488 39.8525 41.9925C39.8525 42.0363 39.8744 42.0756 39.9182 42.1106C40.0933 42.2506 40.2333 42.4256 40.3383 42.6356C40.4521 42.8369 40.509 43.06 40.509 43.305V45.3263C40.509 45.5363 40.4696 45.7331 40.3909 45.9169C40.3121 46.0919 40.2027 46.2494 40.0626 46.3894C39.9313 46.5294 39.7738 46.6388 39.5899 46.7175C39.4061 46.7963 39.2092 46.8356 38.9991 46.8356H36.4256C36.2155 46.8356 36.0185 46.7963 35.8347 46.7175C35.6597 46.6388 35.5021 46.5294 35.362 46.3894C35.222 46.2494 35.1126 46.0919 35.0338 45.9169C34.955 45.7331 34.9156 45.5363 34.9156 45.3263V44.88C34.9156 44.775 34.9506 44.6875 35.0207 44.6175C35.0994 44.5475 35.187 44.5125 35.2833 44.5125H36.1105C36.2067 44.5125 36.2855 44.5431 36.3468 44.6044C36.4168 44.6656 36.4606 44.7444 36.4781 44.8406C36.4781 44.8581 36.4781 44.8756 36.4781 44.8931C36.4869 44.9019 36.4912 44.915 36.4912 44.9325C36.5087 45.0812 36.5525 45.1819 36.6225 45.2344C36.6926 45.2781 36.7888 45.3 36.9114 45.3H38.4345C38.5833 45.3 38.7102 45.2475 38.8153 45.1425C38.9291 45.0287 38.9859 44.8975 38.9859 44.7488V43.1213C38.9859 42.8063 38.824 42.6487 38.5001 42.6487C38.3951 42.6487 38.2944 42.6487 38.1981 42.6487C38.1106 42.6575 38.0231 42.6619 37.9355 42.6619C37.848 42.6619 37.778 42.6619 37.7255 42.6619C37.6554 42.6619 37.5942 42.64 37.5416 42.5963C37.4979 42.5438 37.476 42.4825 37.476 42.4125V41.6381C37.476 41.5681 37.4979 41.5113 37.5416 41.4675C37.5942 41.415 37.6554 41.3888 37.7255 41.3888H38.6708C38.7584 41.3888 38.8328 41.3581 38.894 41.2969C38.9553 41.2356 38.9859 41.1613 38.9859 41.0738V40.4175C38.9859 40.365 39.0078 40.3256 39.0516 40.2994L40.3646 39.3806C40.3996 39.3544 40.4303 39.35 40.4565 39.3675C40.4915 39.385 40.509 39.4156 40.509 39.4594V40.68Z" fill="#DFBE22"/>
<path d="M45.2745 38.9738C45.1783 38.9738 45.0951 39.0088 45.0251 39.0788C44.9638 39.14 44.9332 39.2188 44.9332 39.315V40.5619C44.9332 40.6581 44.9638 40.7412 45.0251 40.8112C45.0951 40.8725 45.1783 40.9031 45.2745 40.9031H48.2551C48.3251 40.9031 48.382 40.9294 48.4258 40.9819C48.4783 41.0256 48.5045 41.0825 48.5045 41.1525V41.9138C48.5045 41.9838 48.4783 42.045 48.4258 42.0975C48.382 42.1413 48.3251 42.1631 48.2551 42.1631H45.2745C45.1783 42.1631 45.0951 42.1981 45.0251 42.2681C44.9638 42.3294 44.9332 42.4081 44.9332 42.5044V44.9981C44.9332 45.0944 44.9638 45.1775 45.0251 45.2475C45.0951 45.3087 45.1783 45.3394 45.2745 45.3394H48.7671C48.8372 45.3394 48.8941 45.3656 48.9378 45.4181C48.9904 45.4619 49.0166 45.5188 49.0166 45.5888V46.6125C49.0166 46.6825 48.9904 46.7438 48.9378 46.7963C48.8941 46.84 48.8372 46.8619 48.7671 46.8619H43.8171C43.537 46.8619 43.3969 46.7219 43.3969 46.4419V38.1206C43.3969 37.8406 43.537 37.7006 43.8171 37.7006H48.7671C48.8372 37.7006 48.8941 37.7269 48.9378 37.7794C48.9904 37.8231 49.0166 37.88 49.0166 37.95V38.7244C49.0166 38.7944 48.9904 38.8556 48.9378 38.9081C48.8941 38.9519 48.8372 38.9738 48.7671 38.9738H45.2745Z" fill="#DFBE22"/>
<path d="M55.435 37.7662C55.47 37.7662 55.4875 37.7838 55.4875 37.8188C55.4875 37.9675 55.4087 38.0813 55.2512 38.16C55.0936 38.23 54.9185 38.265 54.726 38.265C54.5334 38.265 54.3583 38.23 54.2008 38.16C54.0432 38.0813 53.9644 37.9675 53.9644 37.8188C53.9644 37.7838 53.9819 37.7662 54.0169 37.7662H55.435ZM52.1393 46.875C52.0868 46.875 52.0343 46.8619 51.9818 46.8356C51.938 46.8006 51.9249 46.735 51.9424 46.6388C52.2312 43.8125 52.24 41.0038 51.9686 38.2125L51.9555 38.1862C51.9555 38.1338 51.9511 38.0856 51.9424 38.0419C51.9424 37.9894 51.9468 37.9456 51.9555 37.9106C51.973 37.8669 52.0037 37.8319 52.0474 37.8056C52.0912 37.7794 52.1612 37.7662 52.2575 37.7662H53.1766C53.2379 37.7575 53.2948 37.775 53.3473 37.8188C53.4086 37.8538 53.4436 37.9281 53.4523 38.0419C53.5399 38.8556 53.6011 39.665 53.6362 40.47C53.6712 41.2663 53.6799 42.0756 53.6624 42.8981C53.6799 42.9594 53.7193 42.9856 53.7806 42.9769C53.8419 42.9681 53.8813 42.9331 53.8988 42.8719C54.0826 42.5219 54.262 42.1456 54.4371 41.7431C54.6209 41.3406 54.8004 40.9381 54.9754 40.5356C55.1593 40.1331 55.3387 39.7394 55.5138 39.3544C55.6888 38.9694 55.8551 38.6194 56.0127 38.3044C56.0915 38.1556 56.1703 38.0287 56.249 37.9237C56.3366 37.8187 56.4679 37.7662 56.643 37.7662H57.2601C57.3301 37.7662 57.387 37.7925 57.4308 37.845C57.4833 37.8888 57.5095 37.9456 57.5095 38.0156V46.6256C57.5095 46.7919 57.4264 46.875 57.2601 46.875H56.2359C56.1659 46.875 56.1046 46.8531 56.0521 46.8094C56.0083 46.7569 55.9864 46.6956 55.9864 46.6256V41.7956C55.9864 41.7169 55.9471 41.6687 55.8683 41.6512C55.7895 41.625 55.7282 41.6513 55.6845 41.73C55.5006 42.1063 55.3081 42.5131 55.1067 42.9506C54.9142 43.3794 54.7216 43.8125 54.529 44.25C54.3452 44.6788 54.1657 45.0944 53.9907 45.4969C53.8156 45.8994 53.6493 46.2538 53.4917 46.56C53.4305 46.6825 53.3604 46.77 53.2816 46.8225C53.2116 46.8663 53.1547 46.8838 53.111 46.875H52.1393Z" fill="#DFBE22"/>
<path d="M72.177 37.9894C72.177 37.9106 72.2033 37.845 72.2558 37.7925C72.3171 37.7312 72.3871 37.7006 72.4659 37.7006H73.4244C73.5031 37.7006 73.5688 37.7312 73.6213 37.7925C73.6826 37.845 73.7132 37.9106 73.7132 37.9894V46.5731C73.7132 46.6519 73.6826 46.7219 73.6213 46.7831C73.5688 46.8356 73.5031 46.8619 73.4244 46.8619H72.4659C72.3871 46.8619 72.3171 46.8356 72.2558 46.7831C72.2033 46.7219 72.177 46.6519 72.177 46.5731V43.0688C72.177 42.99 72.1464 42.9244 72.0851 42.8719C72.0326 42.8194 71.9669 42.7931 71.8881 42.7931H69.7085C69.4897 42.7931 69.2796 42.7538 69.0783 42.675C68.8857 42.5875 68.715 42.4694 68.5662 42.3206C68.4174 42.1719 68.2992 42.0012 68.2117 41.8087C68.1329 41.6075 68.0935 41.3975 68.0935 41.1788V37.9894C68.0935 37.9106 68.1198 37.845 68.1723 37.7925C68.2336 37.7312 68.3036 37.7006 68.3824 37.7006H69.3409C69.4197 37.7006 69.4853 37.7312 69.5379 37.7925C69.5991 37.845 69.6298 37.9106 69.6298 37.9894V41.2706C69.6298 41.3494 69.656 41.4194 69.7085 41.4806C69.7698 41.5331 69.8398 41.5594 69.9186 41.5594H71.8881C71.9669 41.5594 72.0326 41.5331 72.0851 41.4806C72.1464 41.4194 72.177 41.3494 72.177 41.2706V37.9894Z" fill="#DFBE22"/>
<path d="M80.5896 37.7138C80.8172 37.7138 81.0316 37.7575 81.233 37.845C81.4431 37.9325 81.6225 38.0506 81.7713 38.1994C81.9201 38.3481 82.0383 38.5275 82.1258 38.7375C82.2134 38.9388 82.2571 39.1531 82.2571 39.3806V44.0531C82.2571 44.4381 82.1827 44.8012 82.0339 45.1425C81.8939 45.475 81.6969 45.7681 81.4431 46.0219C81.1892 46.2756 80.8916 46.4769 80.5502 46.6256C80.2088 46.7744 79.8456 46.8488 79.4604 46.8488C79.0753 46.8488 78.712 46.7744 78.3706 46.6256C78.038 46.4769 77.7447 46.2756 77.4909 46.0219C77.237 45.7681 77.0357 45.475 76.8869 45.1425C76.7381 44.8012 76.6637 44.4381 76.6637 44.0531V39.3806C76.6637 39.1531 76.7075 38.9388 76.795 38.7375C76.8825 38.5275 77.0007 38.3481 77.1495 38.1994C77.3071 38.0506 77.4865 37.9325 77.6879 37.845C77.8892 37.7575 78.1036 37.7138 78.3312 37.7138H80.5896ZM80.734 39.4594C80.734 39.3281 80.6859 39.2144 80.5896 39.1181C80.5021 39.0219 80.3883 38.9738 80.2482 38.9738H78.6726C78.5413 38.9738 78.4275 39.0219 78.3312 39.1181C78.2437 39.2144 78.1999 39.3281 78.1999 39.4594V44.1581C78.1999 44.4819 78.3093 44.7575 78.5282 44.985C78.7558 45.2037 79.0315 45.3131 79.3554 45.3131H79.5786C79.9025 45.3131 80.1738 45.2037 80.3926 44.985C80.6202 44.7575 80.734 44.4819 80.734 44.1581V39.4594Z" fill="#DFBE22"/>
<path d="M89.0297 37.7006C89.266 37.7006 89.4892 37.7488 89.6993 37.845C89.9182 37.9325 90.1064 38.055 90.2639 38.2125C90.4215 38.37 90.544 38.5581 90.6316 38.7769C90.7279 38.9869 90.776 39.2144 90.776 39.4594V41.52C90.776 41.765 90.7279 41.9969 90.6316 42.2156C90.544 42.4256 90.4215 42.6094 90.2639 42.7669C90.1064 42.9244 89.9182 43.0513 89.6993 43.1475C89.4892 43.235 89.266 43.2788 89.0297 43.2788H87.047C86.9508 43.2788 86.872 43.3138 86.8107 43.3838C86.7494 43.445 86.7188 43.5238 86.7188 43.62V46.5338C86.7188 46.6213 86.6882 46.6956 86.6269 46.7569C86.5744 46.8094 86.5043 46.8356 86.4168 46.8356H85.4846C85.397 46.8356 85.3226 46.8094 85.2613 46.7569C85.2088 46.6956 85.1826 46.6213 85.1826 46.5338V38.1731C85.1826 38.0419 85.2263 37.9325 85.3139 37.845C85.4102 37.7488 85.524 37.7006 85.6553 37.7006H89.0297ZM89.2529 39.4725C89.2529 39.3325 89.2048 39.2144 89.1085 39.1181C89.0122 39.0219 88.894 38.9738 88.754 38.9738H87.1127C86.8501 38.9738 86.7188 39.105 86.7188 39.3675V41.6775C86.7188 41.7737 86.7494 41.8569 86.8107 41.9269C86.872 41.9881 86.9508 42.0188 87.047 42.0188H88.754C88.894 42.0188 89.0122 41.9706 89.1085 41.8744C89.2048 41.7694 89.2529 41.6513 89.2529 41.52V39.4725Z" fill="#DFBE22"/>
<path d="M99.1107 37.6875C99.1808 37.6875 99.2377 37.7137 99.2814 37.7662C99.3339 37.81 99.3602 37.8669 99.3602 37.9369V46.5994C99.3602 46.6694 99.3339 46.7306 99.2814 46.7831C99.2377 46.8269 99.1808 46.8488 99.1107 46.8488H98.0866C98.0166 46.8488 97.9553 46.8269 97.9028 46.7831C97.859 46.7306 97.8371 46.6694 97.8371 46.5994V41.7694C97.8371 41.6994 97.8065 41.6381 97.7452 41.5856C97.6927 41.5331 97.6314 41.5069 97.5614 41.5069H95.5525C95.4825 41.5069 95.4168 41.5331 95.3555 41.5856C95.303 41.6381 95.2767 41.6994 95.2767 41.7694V46.5994C95.2767 46.6694 95.2505 46.7306 95.198 46.7831C95.1542 46.8269 95.0973 46.8488 95.0273 46.8488H94.0031C93.9331 46.8488 93.8718 46.8269 93.8193 46.7831C93.7755 46.7306 93.7537 46.6694 93.7537 46.5994V37.9369C93.7537 37.8669 93.7755 37.81 93.8193 37.7662C93.8718 37.7137 93.9331 37.6875 94.0031 37.6875H95.0273C95.0973 37.6875 95.1542 37.7137 95.198 37.7662C95.2505 37.81 95.2767 37.8669 95.2767 37.9369V39.9713C95.2767 40.05 95.303 40.1156 95.3555 40.1681C95.4168 40.2206 95.4825 40.2469 95.5525 40.2469H97.5614C97.6314 40.2469 97.6927 40.2206 97.7452 40.1681C97.8065 40.1156 97.8371 40.05 97.8371 39.9713V37.9369C97.8371 37.8669 97.859 37.81 97.9028 37.7662C97.9553 37.7137 98.0166 37.6875 98.0866 37.6875H99.1107Z" fill="#DFBE22"/>
<path d="M106.198 37.7138C106.426 37.7138 106.64 37.7575 106.842 37.845C107.052 37.9325 107.231 38.0506 107.38 38.1994C107.529 38.3481 107.647 38.5275 107.735 38.7375C107.822 38.9388 107.866 39.1531 107.866 39.3806V44.0531C107.866 44.4381 107.792 44.8012 107.643 45.1425C107.503 45.475 107.306 45.7681 107.052 46.0219C106.798 46.2756 106.5 46.4769 106.159 46.6256C105.818 46.7744 105.454 46.8488 105.069 46.8488C104.684 46.8488 104.321 46.7744 103.979 46.6256C103.647 46.4769 103.354 46.2756 103.1 46.0219C102.846 45.7681 102.645 45.475 102.496 45.1425C102.347 44.8012 102.273 44.4381 102.273 44.0531V39.3806C102.273 39.1531 102.316 38.9388 102.404 38.7375C102.491 38.5275 102.61 38.3481 102.758 38.1994C102.916 38.0506 103.095 37.9325 103.297 37.845C103.498 37.7575 103.712 37.7138 103.94 37.7138H106.198ZM106.343 39.4594C106.343 39.3281 106.295 39.2144 106.198 39.1181C106.111 39.0219 105.997 38.9738 105.857 38.9738H104.281C104.15 38.9738 104.036 39.0219 103.94 39.1181C103.853 39.2144 103.809 39.3281 103.809 39.4594V44.1581C103.809 44.4819 103.918 44.7575 104.137 44.985C104.365 45.2037 104.64 45.3131 104.964 45.3131H105.187C105.511 45.3131 105.783 45.2037 106.001 44.985C106.229 44.7575 106.343 44.4819 106.343 44.1581V39.4594Z" fill="#DFBE22"/>
<path d="M114.914 41.9269C115.203 41.9969 115.444 42.08 115.636 42.1763C115.829 42.2638 115.978 42.3731 116.083 42.5044C116.197 42.6269 116.275 42.7756 116.319 42.9506C116.372 43.1256 116.398 43.3356 116.398 43.5806V45.1162C116.398 45.3612 116.35 45.5931 116.254 45.8119C116.166 46.0219 116.043 46.2056 115.886 46.3631C115.728 46.5206 115.54 46.6475 115.321 46.7438C115.111 46.8313 114.884 46.875 114.639 46.875H111.159C111.063 46.875 110.98 46.84 110.91 46.77C110.84 46.7 110.805 46.6169 110.805 46.5206V38.0419C110.805 37.9631 110.831 37.8975 110.883 37.845C110.945 37.7838 111.019 37.7531 111.107 37.7531L115.899 37.74C115.969 37.74 116.026 37.7663 116.07 37.8188C116.122 37.8625 116.148 37.9194 116.148 37.9894V38.7637C116.148 38.8338 116.122 38.895 116.07 38.9475C116.026 38.9912 115.969 39.0131 115.899 39.0131H112.603C112.533 39.0131 112.468 39.0394 112.406 39.0919C112.354 39.1444 112.328 39.2056 112.328 39.2756V41.2575C112.328 41.3275 112.35 41.38 112.393 41.415C112.446 41.45 112.507 41.4762 112.577 41.4938L114.914 41.9269ZM114.875 43.5938C114.875 43.4538 114.831 43.3488 114.744 43.2788C114.665 43.2 114.599 43.1519 114.547 43.1344L112.63 42.7931C112.533 42.7669 112.459 42.7756 112.406 42.8194C112.354 42.8631 112.328 42.9331 112.328 43.0294V45.0506C112.328 45.1819 112.345 45.265 112.38 45.3C112.415 45.3263 112.498 45.3394 112.63 45.3394H114.376C114.516 45.3394 114.634 45.2956 114.73 45.2081C114.827 45.1119 114.875 44.9938 114.875 44.8538V43.5938Z" fill="#DFBE22"/>
<path d="M119.586 37.7006H120.61C120.68 37.7006 120.737 37.7269 120.781 37.7794C120.834 37.8231 120.86 37.88 120.86 37.95V42.8062C120.86 42.8937 120.899 42.9462 120.978 42.9637C121.057 42.9812 121.118 42.955 121.162 42.885C121.346 42.5263 121.53 42.1587 121.713 41.7825C121.897 41.4062 122.077 41.03 122.252 40.6537C122.436 40.2775 122.615 39.91 122.79 39.5513C122.965 39.1925 123.136 38.8513 123.302 38.5275C123.32 38.4925 123.342 38.4269 123.368 38.3306C123.394 38.2344 123.407 38.1644 123.407 38.1206V37.95C123.407 37.88 123.433 37.8231 123.486 37.7794C123.538 37.7269 123.6 37.7006 123.67 37.7006H124.694C124.764 37.7006 124.821 37.7269 124.865 37.7794C124.917 37.8231 124.943 37.88 124.943 37.95V46.6125C124.943 46.6825 124.917 46.7438 124.865 46.7963C124.821 46.84 124.764 46.8619 124.694 46.8619H123.67C123.6 46.8619 123.538 46.84 123.486 46.7963C123.433 46.7438 123.407 46.6825 123.407 46.6125V41.7563C123.407 41.6688 123.368 41.6163 123.289 41.5988C123.21 41.5813 123.149 41.6075 123.105 41.6775C122.921 42.0538 122.733 42.4387 122.541 42.8325C122.357 43.2262 122.173 43.6156 121.989 44.0006C121.814 44.3769 121.643 44.7444 121.477 45.1031C121.311 45.4531 121.149 45.7812 120.991 46.0875C120.904 46.2537 120.86 46.4288 120.86 46.6125C120.86 46.6825 120.834 46.7438 120.781 46.7963C120.737 46.84 120.68 46.8619 120.61 46.8619H119.586C119.516 46.8619 119.455 46.84 119.402 46.7963C119.359 46.7438 119.337 46.6825 119.337 46.6125V37.95C119.337 37.88 119.359 37.8231 119.402 37.7794C119.455 37.7269 119.516 37.7006 119.586 37.7006Z" fill="#DFBE22"/>
<path d="M132.884 37.7006C132.98 37.7006 133.059 37.7356 133.12 37.8056C133.19 37.8669 133.225 37.9456 133.225 38.0419V46.5206C133.225 46.6169 133.19 46.7 133.12 46.77C133.059 46.8313 132.98 46.8619 132.884 46.8619H132.03C131.934 46.8619 131.851 46.8313 131.781 46.77C131.72 46.7 131.689 46.6169 131.689 46.5206V39.2231C131.689 39.1531 131.663 39.0963 131.61 39.0525C131.567 39 131.51 38.9738 131.44 38.9738H130.652C130.582 38.9738 130.52 39 130.468 39.0525C130.424 39.0963 130.402 39.1531 130.402 39.2231C130.385 40.1769 130.341 41.0125 130.271 41.73C130.201 42.4475 130.113 43.0819 130.008 43.6331C129.912 44.1844 129.803 44.6787 129.68 45.1162C129.558 45.545 129.431 45.9563 129.299 46.35C129.256 46.4988 129.168 46.6213 129.037 46.7175C128.914 46.805 128.774 46.8488 128.617 46.8488H127.96C127.864 46.8488 127.781 46.8181 127.711 46.7569C127.649 46.6869 127.619 46.6038 127.619 46.5075V45.6675C127.619 45.5713 127.649 45.4925 127.711 45.4313C127.781 45.3613 127.864 45.3263 127.96 45.3263C128.048 45.3263 128.105 45.2825 128.131 45.195C128.218 44.8625 128.31 44.5037 128.407 44.1187C128.503 43.725 128.59 43.2831 128.669 42.7931C128.748 42.3031 128.814 41.7475 128.866 41.1263C128.919 40.4963 128.945 39.7788 128.945 38.9738V38.0419C128.945 37.9456 128.976 37.8669 129.037 37.8056C129.107 37.7356 129.19 37.7006 129.286 37.7006H132.884Z" fill="#DFBE22"/>
<path d="M141.75 45.09C141.75 45.335 141.702 45.5669 141.606 45.7856C141.518 45.9956 141.396 46.1794 141.238 46.3369C141.081 46.4944 140.892 46.6213 140.674 46.7175C140.464 46.805 140.24 46.8488 140.004 46.8488H136.63C136.498 46.8488 136.384 46.805 136.288 46.7175C136.201 46.6213 136.157 46.5075 136.157 46.3763V38.0156C136.157 37.9281 136.183 37.8581 136.236 37.8056C136.297 37.7444 136.371 37.7138 136.459 37.7138H137.391C137.479 37.7138 137.549 37.7444 137.601 37.8056C137.662 37.8581 137.693 37.9281 137.693 38.0156V41.1788C137.693 41.275 137.724 41.3581 137.785 41.4281C137.846 41.4894 137.925 41.52 138.021 41.52H140.004C140.24 41.52 140.464 41.5681 140.674 41.6644C140.892 41.7519 141.081 41.8744 141.238 42.0319C141.396 42.1894 141.518 42.3775 141.606 42.5963C141.702 42.8063 141.75 43.0294 141.75 43.2656V45.09ZM140.227 43.2788C140.227 43.1388 140.179 43.0206 140.083 42.9244C139.986 42.8281 139.868 42.78 139.728 42.78L138.021 42.7669C137.925 42.7669 137.846 42.8019 137.785 42.8719C137.724 42.9331 137.693 43.0119 137.693 43.1081V44.9456C137.693 45.2081 137.824 45.3394 138.087 45.3394H139.728C139.868 45.3394 139.986 45.2913 140.083 45.195C140.179 45.0988 140.227 44.9806 140.227 44.8406V43.2788Z" fill="#DFBE22"/>
<path d="M61.341 39.9335C61.341 39.6798 61.341 39.4307 61.341 39.1864C61.341 38.9327 61.3457 38.693 61.3551 38.4675C61.3644 37.6969 61.477 37.1095 61.6927 36.7054C61.9178 36.2919 62.3211 36.0805 62.9025 36.0711L63.1276 36.7054C62.7994 36.7242 62.579 36.8558 62.4664 37.1001C62.3633 37.3445 62.3117 37.6875 62.3117 38.1292H63.1839V39.9335H61.341ZM64.028 39.9335C64.028 39.6798 64.028 39.4307 64.028 39.1864C64.028 38.9327 64.0327 38.693 64.042 38.4675C64.0514 37.6969 64.164 37.1095 64.3797 36.7054C64.6048 36.2919 65.008 36.0805 65.5895 36.0711L65.8146 36.7054C65.4864 36.7242 65.266 36.8558 65.1534 37.1001C65.0503 37.3445 64.9987 37.6875 64.9987 38.1292H65.8709V39.9335H64.028Z" fill="#DFBE22"/>
<path d="M146.773 36.0711C146.773 36.3249 146.773 36.5739 146.773 36.8182C146.773 37.072 146.768 37.3116 146.759 37.5372C146.749 38.3078 146.637 38.8951 146.421 39.2992C146.196 39.7127 145.793 39.9241 145.211 39.9335L144.986 39.2992C145.314 39.2804 145.535 39.1488 145.647 38.9045C145.75 38.6602 145.802 38.3172 145.802 37.8755H144.93V36.0711H146.773ZM144.086 36.0711C144.086 36.3249 144.086 36.5739 144.086 36.8182C144.086 37.072 144.081 37.3116 144.072 37.5372C144.062 38.3078 143.95 38.8951 143.734 39.2992C143.509 39.7127 143.106 39.9241 142.524 39.9335L142.299 39.2992C142.627 39.2804 142.848 39.1488 142.96 38.9045C143.063 38.6602 143.115 38.3172 143.115 37.8755H142.243V36.0711H144.086Z" fill="#DFBE22"/>
</svg>
