<svg width="24" height="20" viewBox="0 0 24 20" fill="none" xmlns="http://www.w3.org/2000/svg">
<path d="M23.8555 2.39974C23.7244 2.2727 23.5367 2.23081 23.3657 2.29025L22.5564 2.56952C23.0331 1.99264 23.3849 1.39014 23.5701 0.818973C23.6239 0.652479 23.575 0.468065 23.4459 0.349564C23.3161 0.230265 23.1276 0.196487 22.9639 0.264886C21.8289 0.740816 20.8245 1.15524 20.0258 1.40318C19.9961 1.41256 19.9656 1.40848 19.935 1.39135C19.2983 1.03472 17.7045 0.215628 16.5723 0.22867C13.7091 0.281165 11.3793 2.7279 11.3793 5.68307V5.84469C7.16325 5.02845 4.83337 3.81567 2.31055 1.16908L1.91648 0.755453L1.65428 1.2631C0.284808 3.91216 1.25576 6.28642 2.8561 7.88553C2.14692 7.77684 1.63191 7.54847 1.19834 7.17026C1.03185 7.02614 0.795687 7.00822 0.610054 7.1263C0.427282 7.24274 0.343824 7.46055 0.40284 7.66814C0.941445 9.57383 2.38382 11.1387 3.90642 12.0739C3.17079 12.0731 2.56542 11.9912 1.95678 11.6C1.77968 11.486 1.54925 11.4978 1.38397 11.6285C1.21992 11.7587 1.15682 11.9786 1.22682 12.176C1.96898 14.2604 3.35679 15.3568 5.65655 15.6299C4.4743 16.3212 2.94035 16.8675 0.545314 16.9176C0.311642 16.9225 0.104803 17.0743 0.0299305 17.295C-0.0449422 17.5148 0.0234565 17.751 0.203789 17.8959C1.65921 19.0692 4.92377 19.7698 8.93664 19.7698C16.1201 19.7698 21.9641 13.3778 21.9641 5.52104V5.38302C22.8935 4.93885 23.6027 4.06238 23.9776 2.88379C24.0322 2.712 23.9854 2.52636 23.8555 2.39974Z" fill="#F5F3EA"/>
</svg>
