<svg width="50" height="50" viewBox="0 0 50 50" fill="none" xmlns="http://www.w3.org/2000/svg">
<path d="M46.6667 41.6673H3.33333C1.49306 41.6673 0 40.1743 0 38.334V11.6673C0 9.82704 1.49306 8.33398 3.33333 8.33398H46.6667C48.5069 8.33398 50 9.82704 50 11.6673V38.334C50 40.1743 48.5069 41.6673 46.6667 41.6673ZM24.7778 28.8368L24.2792 31.9618C25.3764 32.4312 26.6528 32.7048 27.9931 32.7048C28.1 32.7048 28.2056 32.7034 28.3111 32.6993H28.2958C28.4181 32.7062 28.5597 32.7104 28.7042 32.7104C30.2444 32.7104 31.6722 32.227 32.8444 31.4034L32.8208 31.4187C33.8847 30.6298 34.5681 29.3784 34.5681 27.9673C34.5681 27.9604 34.5681 27.9534 34.5681 27.9465V27.9479C34.5681 26.4201 33.5458 25.1507 31.5306 24.1701C30.9389 23.8812 30.4333 23.5784 29.9583 23.2368L29.9903 23.259C29.7153 23.0784 29.5319 22.7798 29.5139 22.4368V22.434C29.5361 22.0729 29.7431 21.7645 30.0403 21.6007L30.0458 21.5979C30.4375 21.3701 30.9069 21.2354 31.4097 21.2354C31.4681 21.2354 31.5264 21.2368 31.5847 21.2409H31.5764H31.6875C31.7194 21.2409 31.7569 21.2395 31.7944 21.2395C32.6889 21.2395 33.5375 21.4326 34.3028 21.7784L34.2639 21.7632L34.5889 21.9368L35.0875 18.9215C34.15 18.5507 33.0625 18.3354 31.925 18.3354C31.9028 18.3354 31.8792 18.3354 31.8569 18.3354H31.8611C31.7722 18.3312 31.6681 18.3284 31.5639 18.3284C30.0417 18.3284 28.6306 18.8104 27.4764 19.6298L27.4986 19.6145C26.4542 20.359 25.7806 21.5645 25.7806 22.9284V22.9354C25.7667 24.4048 26.825 25.6743 28.9278 26.7132C29.4833 26.9562 29.9625 27.2534 30.3917 27.6104L30.3819 27.602C30.625 27.8076 30.7819 28.109 30.7944 28.4465V28.4493V28.452C30.7944 28.8951 30.5306 29.2757 30.15 29.4465L30.1431 29.4493C29.7264 29.6687 29.2319 29.7965 28.7069 29.7965C28.6861 29.7965 28.6639 29.7965 28.6431 29.7965H28.6458C28.6153 29.7965 28.5778 29.7965 28.5417 29.7965C27.3514 29.7965 26.2236 29.5326 25.2125 29.0604L25.2611 29.0812L24.7847 28.8423L24.7778 28.8368ZM38.8403 30.4215H43.4444C43.5185 30.7391 43.6634 31.4335 43.8792 32.5048H47.2222L44.3139 18.5729H41.5361C41.4875 18.5687 41.4306 18.5659 41.3722 18.5659C40.5917 18.5659 39.9236 19.0493 39.6514 19.7326L39.6472 19.7451L34.3139 32.5048H38.0917L38.85 30.4229L38.8403 30.4215ZM20.6819 18.5729L18.4236 32.5048H22.0264L24.2833 18.5729H20.6819ZM6.83611 21.4159L9.76667 32.4826H13.5639L19.2236 18.5729H15.4097L11.8903 28.0784L11.5208 26.1465L10.2653 19.7451C10.1389 19.0659 9.55139 18.5576 8.84444 18.5576C8.77222 18.5576 8.7 18.5632 8.63056 18.5729L8.63889 18.5715H2.82361L2.78056 18.8534C7.25833 19.9909 10.2 22.4451 11.525 26.1451C11.0958 25.0451 10.4694 24.1076 9.68333 23.334L9.68194 23.3326C8.89444 22.5243 7.94861 21.8757 6.89444 21.4326L6.83889 21.4118L6.83611 21.4159ZM42.8597 27.5562H39.8597C40.0625 27.021 40.5403 25.7247 41.2931 23.6673L41.3569 23.4715C41.4153 23.327 41.4875 23.1382 41.5792 22.9076C41.6708 22.677 41.7319 22.4882 41.7736 22.3437L42.0347 23.5368L42.8583 27.5507L42.8597 27.5562Z" fill="#F5F3EA"/>
</svg>
