<svg width="123" height="24" viewBox="0 0 123 24" fill="none" xmlns="http://www.w3.org/2000/svg">
<mask id="mask0_1405_20899" style="mask-type:luminance" maskUnits="userSpaceOnUse" x="0" y="2" width="123" height="20">
<path fill-rule="evenodd" clip-rule="evenodd" d="M0 2.47266H122.298V21.3681H0V2.47266Z" fill="white"/>
</mask>
<g mask="url(#mask0_1405_20899)">
<path fill-rule="evenodd" clip-rule="evenodd" d="M122.297 21.117H117.846L113.572 14.1647L109.297 21.117H105.124L111.221 11.6378L105.513 2.7369H109.813L113.773 9.34973L117.658 2.7369H121.857L116.086 11.8514L122.297 21.117ZM103.091 21.117H92.5059V2.7369H103.091V5.93006H96.4032V9.96584H102.626V13.159H96.4032V17.8986H103.091V21.117ZM84.6855 21.117H80.7884V5.98056H75.7974V2.7369H89.6767V5.98056H84.6855V21.117ZM38.7317 15.5344H38.9079C40.2572 15.5344 41.3153 15.1806 42.0824 14.4722C42.8492 13.7641 43.2327 12.7937 43.2327 11.5619C43.2327 10.422 42.8764 9.5063 42.1641 8.81481C41.4517 8.12332 40.4792 7.77766 39.2474 7.77766H38.7317V15.5344ZM35.2248 7.77766H34.7093C33.4771 7.77766 32.5048 8.12145 31.7926 8.80845C31.0799 9.49601 30.7238 10.4136 30.7238 11.5619C30.7238 12.7688 31.1011 13.7325 31.8554 14.4533C32.6096 15.1742 33.674 15.5344 35.0484 15.5344H35.2248V7.77766ZM35.2287 21.3681V18.5395H34.9519C33.3931 18.5395 32.0267 18.2649 30.8534 17.7159C29.6799 17.1671 28.7558 16.3436 28.0815 15.2455C27.4066 14.1477 27.0692 12.9282 27.0692 11.5872C27.0692 10.2882 27.369 9.11691 27.9681 8.07341C28.5674 7.02991 29.4328 6.21272 30.5643 5.62186C31.6959 5.031 33.0283 4.73548 34.5623 4.73548H35.2287V2.47266H38.7359V4.73548H39.4023C40.9276 4.73548 42.2562 5.031 43.3878 5.62186C44.519 6.21272 45.3865 7.02991 45.9901 8.07341C46.5935 9.11691 46.8952 10.2882 46.8952 11.5872C46.8952 12.9282 46.5577 14.1477 45.8831 15.2455C45.2084 16.3436 44.2844 17.1671 43.111 17.7159C41.9376 18.2649 40.5717 18.5395 39.0127 18.5395H38.7359V21.3681H35.2287ZM23.5827 21.117H19.6979V13.1841H12.4188V21.117H8.52146V2.7369H12.4188V9.94059H19.6979V2.7369H23.5827V21.117ZM0 21.117H3.89737V2.7369H0V21.117Z" fill="white"/>
</g>
<path fill-rule="evenodd" clip-rule="evenodd" d="M67.031 11.7675C66.9973 11.7189 66.9631 11.67 66.9283 11.6212C66.9184 11.6076 66.9088 11.5937 66.8989 11.5801L66.8965 11.5943L66.8892 11.5844C66.8888 11.5861 66.8885 11.5881 66.8883 11.5898C66.8841 11.6136 66.8798 11.6373 66.8754 11.662C66.8709 11.6873 66.8662 11.7131 66.8613 11.7394C66.8604 11.7445 66.8595 11.7495 66.8585 11.7546C66.8486 11.8081 66.8381 11.864 66.8271 11.9211C66.8249 11.9325 66.823 11.9437 66.8206 11.9553C66.8093 12.0129 66.7977 12.0722 66.7856 12.1333C66.7828 12.1464 66.7802 12.1595 66.7775 12.1728C66.7644 12.2364 66.7512 12.3013 66.7371 12.3681C66.7356 12.375 66.734 12.3821 66.7325 12.3888C66.7182 12.4562 66.7033 12.5248 66.6878 12.595C66.6863 12.6017 66.6848 12.6082 66.6835 12.6148C66.6674 12.6868 66.6507 12.7601 66.6333 12.8347C66.6303 12.8469 66.6275 12.8591 66.6247 12.8714C66.6071 12.9457 66.5894 13.021 66.5705 13.0977C66.5677 13.1088 66.5649 13.1202 66.5621 13.1314C66.5424 13.2114 66.522 13.2924 66.5007 13.3749L66.4925 13.4084C66.4502 13.5719 66.4055 13.7325 66.3602 13.8917C66.3544 13.9121 66.349 13.9331 66.3434 13.9533C66.3389 13.9692 66.3337 13.9843 66.3292 14C66.2847 14.1536 66.239 14.3055 66.1917 14.4547C66.1889 14.4635 66.1863 14.4725 66.1837 14.4813C66.1775 14.5007 66.1708 14.5191 66.1648 14.5381C66.1429 14.6062 66.1214 14.6745 66.0991 14.7413C66.1184 14.7332 66.1375 14.7252 66.1566 14.7169C66.2104 14.6941 66.2639 14.6713 66.3165 14.6485C66.3458 14.6358 66.3746 14.623 66.4036 14.6103C66.4526 14.5888 66.5009 14.5673 66.5486 14.5458C66.5765 14.5331 66.6045 14.5205 66.632 14.5078C66.6816 14.4852 66.73 14.4626 66.7777 14.4399C66.8011 14.4289 66.8247 14.418 66.8477 14.407C66.9173 14.3739 66.9855 14.3406 67.0515 14.3075C67.1514 14.2576 67.2494 14.2046 67.3465 14.15C67.3777 14.1324 67.4086 14.1137 67.4395 14.0956C67.5051 14.0572 67.5706 14.0182 67.6349 13.9774C67.6695 13.9557 67.7039 13.9332 67.7382 13.9108C67.799 13.871 67.859 13.83 67.9183 13.7883C67.951 13.7653 67.9838 13.7425 68.0161 13.7189C68.0313 13.7077 68.0459 13.6957 68.061 13.6845C68.0524 13.6617 68.0445 13.6386 68.0356 13.6158C68.0191 13.5737 68.0019 13.5318 67.9847 13.4898C67.9551 13.4181 67.9245 13.3465 67.8927 13.2754C67.8743 13.2339 67.8558 13.1924 67.8366 13.151C67.8014 13.076 67.7647 13.0014 67.7273 12.927C67.7094 12.8916 67.6922 12.8561 67.674 12.8209C67.6172 12.7124 67.5584 12.6047 67.4965 12.4981C67.4556 12.4274 67.4127 12.3563 67.3691 12.285C67.3549 12.2622 67.3403 12.2392 67.3261 12.2164C67.2955 12.1674 67.2644 12.1182 67.2326 12.0688C67.2154 12.0423 67.1978 12.0157 67.1802 11.9889C67.1496 11.9424 67.1185 11.8958 67.0869 11.8492C67.0684 11.8219 67.0499 11.7948 67.031 11.7675ZM67.7672 14.7434C67.7414 14.7583 67.7152 14.7731 67.689 14.7879C67.5852 14.8462 67.4803 14.9029 67.3736 14.9562C67.3134 14.9865 67.2515 15.0166 67.1887 15.0469C67.1692 15.0563 67.1492 15.0656 67.1294 15.075C67.0854 15.0959 67.0411 15.1169 66.9956 15.138C66.9713 15.1492 66.9464 15.1605 66.9218 15.1719C66.8885 15.187 66.8557 15.2022 66.8219 15.2175C66.8129 15.2214 66.8035 15.2256 66.7946 15.2295C66.7678 15.2415 66.7403 15.2536 66.7132 15.2656C66.6711 15.2841 66.629 15.3026 66.5862 15.3213C66.5574 15.3337 66.5279 15.3462 66.4985 15.3587C66.456 15.3769 66.4136 15.395 66.3704 15.4132C66.3397 15.4259 66.309 15.4386 66.2782 15.4513C66.2346 15.4695 66.1908 15.4874 66.1463 15.5054C66.1151 15.5181 66.0834 15.5308 66.0518 15.5435C66.0062 15.5619 65.9604 15.58 65.914 15.5983C65.8826 15.6107 65.8509 15.623 65.819 15.6354C65.8008 15.6427 65.7829 15.6498 65.7643 15.6569C65.7608 15.666 65.7569 15.6746 65.7533 15.6838C65.7002 15.8173 65.6458 15.9488 65.5904 16.0779C65.5812 16.0992 65.5721 16.1202 65.5627 16.1411C65.5066 16.2698 65.4494 16.3964 65.3906 16.5202C65.382 16.5384 65.3732 16.5565 65.3646 16.5745C65.3042 16.7006 65.2429 16.8244 65.18 16.9452C65.178 16.9489 65.1765 16.9529 65.1744 16.9564C65.1701 16.9647 65.1656 16.9721 65.1615 16.9804C65.0951 17.1064 65.028 17.2303 64.9593 17.3501C64.8954 17.4616 64.828 17.5709 64.7596 17.6792C64.7416 17.7078 64.7231 17.7364 64.7046 17.765C64.6434 17.8589 64.5809 17.952 64.5166 18.0435C64.5069 18.0575 64.4973 18.0719 64.4872 18.086C64.4268 18.1709 64.3651 18.2549 64.3017 18.3374C65.5767 18.7253 66.9442 18.729 68.2959 18.3475C68.6491 17.0557 68.6493 15.7074 68.2965 14.4091C68.223 14.4602 68.1482 14.5101 68.0726 14.5586C68.0709 14.5597 68.0693 14.5608 68.0674 14.5619C67.969 14.6248 67.8686 14.6848 67.7672 14.7434ZM57.7554 21.5807C56.7519 21.5807 55.75 21.3976 54.7949 21.0398C56.8872 23.7345 60.5447 24.7221 63.708 23.4498C62.1331 23.1766 60.662 22.4714 59.4577 21.4027C58.8954 21.5213 58.3253 21.5807 57.7554 21.5807ZM64.8957 22.8477C63.2223 22.7858 61.6212 22.1985 60.3127 21.1741C61.6416 20.7411 62.8314 19.9778 63.7942 18.9373L63.7991 18.9391L63.8029 18.9348C64.5967 19.2105 65.4406 19.3504 66.2961 19.3504C66.8705 19.3504 67.4498 19.2868 68.0221 19.1619C67.4159 20.6739 66.326 21.9628 64.8957 22.8477Z" fill="white"/>
<path fill-rule="evenodd" clip-rule="evenodd" d="M64.492 16.6986C64.5195 16.6468 64.547 16.5948 64.5741 16.5419C64.5885 16.5138 64.6026 16.4856 64.6168 16.4572C64.6419 16.4076 64.6665 16.3575 64.6909 16.3068C64.7056 16.2769 64.72 16.2467 64.7344 16.2164C64.7586 16.1654 64.7825 16.1139 64.8063 16.0621C64.8141 16.0449 64.8218 16.0279 64.8296 16.0107L64.6417 16.0821L64.651 16.0666C64.6477 16.0677 64.6441 16.0689 64.6409 16.07C64.5917 16.0874 64.5414 16.1051 64.489 16.1233C64.4838 16.1252 64.4788 16.1268 64.4733 16.1287C64.4176 16.148 64.3592 16.1678 64.2999 16.1878C64.2867 16.1921 64.2736 16.1966 64.2601 16.2011C64.2008 16.2209 64.14 16.2411 64.0777 16.2615C64.065 16.2656 64.0519 16.2697 64.039 16.2739C63.9741 16.295 63.9085 16.3161 63.8406 16.3375C63.8389 16.338 63.837 16.3386 63.8353 16.3391C63.7663 16.3608 63.6952 16.3827 63.6232 16.4046C63.61 16.4087 63.5967 16.4126 63.5834 16.4168C63.5589 16.4242 63.5342 16.4315 63.5093 16.4388C63.4629 16.4529 63.416 16.4667 63.3685 16.4805C63.3546 16.4845 63.3408 16.4886 63.3268 16.4925C63.301 16.5 63.2755 16.5077 63.2493 16.515C63.1983 16.5295 63.1468 16.5441 63.0945 16.5587C63.0778 16.5645 63.0608 16.5694 63.0436 16.5731C62.8803 16.6182 62.7183 16.6605 62.5567 16.7012C62.5212 16.7102 62.4855 16.7192 62.4501 16.728C62.2936 16.7667 62.1379 16.8034 61.9836 16.8376C61.9563 16.8436 61.9296 16.8492 61.9023 16.855C61.8321 16.8703 61.7616 16.8859 61.692 16.9003C61.7068 16.9115 61.7214 16.9225 61.7364 16.9336C61.7856 16.971 61.8346 17.0076 61.883 17.0435C61.9066 17.0609 61.9298 17.0779 61.953 17.095C61.9982 17.1281 62.0431 17.1606 62.0876 17.1926C62.111 17.2094 62.1346 17.2263 62.1578 17.2427C62.2038 17.2755 62.249 17.3071 62.2941 17.3383C62.3139 17.3523 62.3341 17.3664 62.3538 17.38C62.4179 17.4238 62.4813 17.4666 62.5434 17.508C62.6373 17.5699 62.7329 17.6288 62.8291 17.6856C62.8595 17.7038 62.8904 17.7206 62.9213 17.7382C62.9882 17.7764 63.0556 17.8138 63.1236 17.8497C63.1592 17.8684 63.1949 17.8867 63.231 17.9047C63.2967 17.9378 63.3629 17.9696 63.4293 18.0004C63.4646 18.0167 63.4998 18.0332 63.5353 18.0489C63.5525 18.0565 63.5699 18.0631 63.5871 18.0704C63.603 18.0511 63.6193 18.0322 63.635 18.0126C63.6629 17.9776 63.6904 17.9421 63.7177 17.9065C63.7656 17.8444 63.8127 17.7816 63.8589 17.7178C63.8855 17.6813 63.9118 17.6449 63.9378 17.6076C63.9855 17.5398 64.0319 17.4704 64.0776 17.4008C64.0992 17.3677 64.1217 17.3349 64.1428 17.3015C64.2083 17.1982 64.2721 17.0938 64.3332 16.9874C64.3742 16.916 64.4148 16.8428 64.4548 16.7688C64.4673 16.7456 64.4797 16.722 64.492 16.6986ZM62.5246 18.3481C62.4988 18.3334 62.4732 18.3182 62.4474 18.3031C62.3445 18.2419 62.2424 18.1791 62.1419 18.1128C62.0404 18.0457 61.9362 17.9742 61.8301 17.9002C61.8202 17.8933 61.8103 17.8865 61.8002 17.8794C61.6988 17.8082 61.5954 17.7335 61.4906 17.6563C61.4755 17.6451 61.4603 17.634 61.4452 17.6228C61.3419 17.5463 61.2368 17.4668 61.1306 17.3847C61.1132 17.3714 61.096 17.3579 61.0784 17.3445C60.972 17.2618 60.8642 17.1767 60.755 17.0888C60.7472 17.0826 60.7397 17.0768 60.7318 17.0706C60.6606 17.0809 60.5914 17.0886 60.5208 17.0981C60.4477 17.1079 60.3742 17.1182 60.302 17.1266C60.2004 17.1385 60.1009 17.1481 60.0014 17.1576C59.9356 17.164 59.869 17.1715 59.8039 17.1767C59.6943 17.1859 59.5873 17.1919 59.4803 17.1978C59.4281 17.2008 59.3747 17.2053 59.3232 17.2074C59.1659 17.2143 59.0114 17.2182 58.8607 17.2184H58.8433C58.7305 17.2184 58.6179 17.2158 58.5058 17.2115C58.4449 17.2092 58.3839 17.2061 58.3231 17.2025C58.2576 17.1988 58.1924 17.1939 58.1271 17.1887C58.062 17.1832 57.9969 17.1782 57.932 17.1715C57.8475 17.1627 57.7631 17.1533 57.6791 17.1421C57.9818 18.4284 58.6749 19.638 59.6672 20.607C60.9624 20.2674 62.1298 19.5935 63.0773 18.6388C62.9971 18.6008 62.9172 18.5616 62.8379 18.5206C62.8375 18.5206 62.8373 18.5204 62.8372 18.5202C62.7318 18.466 62.6279 18.408 62.5246 18.3481ZM58.8271 20.7776C57.8442 19.6982 57.1776 18.3871 56.9137 17.0076L56.9088 17.0069L56.9081 17.0024C55.5268 16.6897 54.2712 16.0418 53.2305 15.1075C52.9976 16.7544 53.2899 18.4349 54.0736 19.9139C55.5548 20.7096 57.2152 21.0086 58.8271 20.7776ZM52.9575 19.1883C51.6533 18.1698 50.7175 16.7637 50.2817 15.1371C49.8427 13.4989 49.9551 11.8007 50.5875 10.2578C50.8503 11.8357 51.545 13.2976 52.6049 14.4799C52.281 16.0604 52.4065 17.6891 52.9575 19.1883Z" fill="white"/>
<path fill-rule="evenodd" clip-rule="evenodd" d="M56.2833 9.26151C56.3093 9.24655 56.3351 9.23177 56.3613 9.21718C56.4647 9.1592 56.5691 9.10271 56.6751 9.04978C56.7354 9.01967 56.7971 8.98955 56.8599 8.95925C56.8812 8.94915 56.9033 8.93886 56.925 8.92858C56.9673 8.90838 57.0097 8.88818 57.0533 8.86798C57.0795 8.85601 57.1063 8.84385 57.133 8.83169C57.1727 8.81355 57.2125 8.7954 57.2531 8.77726C57.2828 8.76379 57.3133 8.7507 57.3436 8.73724C57.3825 8.72003 57.4214 8.70301 57.4613 8.6858C57.4929 8.67214 57.5252 8.6583 57.5574 8.64465C57.5967 8.62782 57.6363 8.61098 57.6765 8.59434C57.7098 8.58031 57.7435 8.56647 57.777 8.55263C57.8174 8.53598 57.858 8.51952 57.8989 8.50287C57.9339 8.48866 57.9691 8.47444 58.0046 8.46041C58.0235 8.45275 58.0418 8.44526 58.0609 8.4376C58.083 8.42899 58.1058 8.4202 58.1281 8.4116C58.1643 8.39719 58.2008 8.38298 58.2375 8.36876C58.2536 8.36259 58.2691 8.35642 58.2852 8.35006C58.2889 8.34108 58.2927 8.33267 58.2964 8.3235C58.3493 8.18977 58.4038 8.05809 58.4595 7.92884C58.4687 7.9079 58.4775 7.88695 58.4866 7.86619C58.5427 7.73769 58.6002 7.61106 58.6587 7.48724C58.6675 7.46872 58.6765 7.45039 58.6853 7.43206C58.7453 7.30637 58.8065 7.18293 58.8691 7.06266C58.8755 7.05013 58.8824 7.03797 58.8889 7.02562C58.9548 6.89993 59.0219 6.77649 59.0904 6.65715C59.1544 6.54568 59.2213 6.43644 59.2898 6.32834C59.3079 6.29953 59.3264 6.2711 59.3448 6.24248C59.4057 6.1484 59.4682 6.05563 59.5327 5.96417C59.5426 5.94995 59.5522 5.93555 59.5621 5.92152C59.6227 5.83642 59.6846 5.75244 59.7476 5.66995C59.1039 5.47412 58.4363 5.37592 57.7588 5.37592C57.095 5.37592 56.4219 5.47131 55.7525 5.66004C55.4001 6.95118 55.4003 8.299 55.7528 9.59687C55.8271 9.54544 55.9021 9.49512 55.978 9.44631C55.981 9.44444 55.9838 9.44275 55.9868 9.44088C56.0843 9.3786 56.1834 9.31931 56.2833 9.26151ZM57.2227 12.0883C57.2242 12.0806 57.2255 12.0733 57.227 12.0657C57.2382 12.0069 57.2504 11.9461 57.2629 11.8837C57.265 11.8734 57.2672 11.8631 57.2691 11.8528C57.2822 11.7888 57.2954 11.7236 57.3097 11.656C57.311 11.6501 57.3125 11.6435 57.3138 11.6375C57.3278 11.5711 57.3424 11.5032 57.3577 11.4338C57.3594 11.4273 57.3607 11.4208 57.362 11.414C57.3777 11.3439 57.394 11.2721 57.411 11.1989C57.4142 11.186 57.417 11.1729 57.4202 11.1598C57.4372 11.0873 57.4548 11.0136 57.4729 10.9386C57.4759 10.9266 57.4789 10.9142 57.4819 10.9021C57.489 10.8737 57.4958 10.8454 57.5029 10.8168C57.5158 10.7659 57.5287 10.7147 57.542 10.6627C57.5852 10.4943 57.6304 10.3288 57.6766 10.1646C57.6869 10.1283 57.697 10.0922 57.7073 10.0563C57.7077 10.055 57.7081 10.0539 57.7084 10.0527C57.7546 9.89207 57.8019 9.73308 57.8511 9.5769C57.8534 9.56961 57.8556 9.56213 57.8579 9.55483C57.8624 9.54062 57.8674 9.52696 57.8719 9.51256C57.8983 9.42951 57.9246 9.34666 57.952 9.26492C57.9308 9.27371 57.9099 9.28269 57.8889 9.29148C57.8373 9.31336 57.786 9.33506 57.7359 9.35694C57.7056 9.37004 57.6759 9.38294 57.6461 9.39604C57.5975 9.41754 57.5494 9.43887 57.5023 9.46019C57.4744 9.47272 57.4468 9.48525 57.4193 9.49779C57.3688 9.52098 57.319 9.54417 57.2698 9.56736C57.2477 9.57765 57.2253 9.58813 57.2038 9.59841C57.1336 9.63208 57.065 9.66537 56.9982 9.69867C56.8991 9.74823 56.8013 9.80079 56.7046 9.85522C56.6739 9.87261 56.6438 9.89095 56.6133 9.90871C56.5471 9.94743 56.4814 9.98671 56.4167 10.0277C56.3825 10.0492 56.3486 10.0714 56.3148 10.0935C56.2534 10.1339 56.193 10.1752 56.1328 10.2175C56.1004 10.2403 56.0681 10.263 56.0363 10.2863C56.0206 10.2978 56.0054 10.3101 55.9899 10.3217C55.9987 10.3449 56.0065 10.3685 56.0157 10.3917C56.0318 10.4326 56.0486 10.4738 56.0655 10.5147C56.0954 10.5875 56.1264 10.6601 56.1586 10.7321C56.1769 10.773 56.1949 10.8138 56.214 10.8544C56.2493 10.9303 56.2865 11.0059 56.3245 11.0811C56.3419 11.1159 56.3587 11.1509 56.3769 11.1855C56.4337 11.2943 56.4925 11.4026 56.5544 11.5094C56.5955 11.5801 56.6382 11.6512 56.6819 11.7224C56.6965 11.7462 56.7119 11.7703 56.7268 11.7943C56.7568 11.842 56.7869 11.89 56.8179 11.9381C56.8359 11.966 56.8544 11.9938 56.8727 12.0217C56.9023 12.0668 56.9324 12.1117 56.9631 12.1569C56.9823 12.1856 57.002 12.2144 57.0218 12.243C57.0534 12.289 57.086 12.335 57.1187 12.3812C57.132 12.3999 57.1451 12.4186 57.1587 12.4375C57.1593 12.4334 57.1602 12.4285 57.161 12.4244C57.1791 12.3215 57.1995 12.2091 57.2227 12.0883ZM69.2587 2.96979C68.2386 1.6504 66.824 0.703414 65.1853 0.264429C63.5582 -0.17175 61.8719 -0.0642017 60.3372 0.556587C61.9132 0.82948 63.3864 1.53518 64.5931 2.60618C66.1465 2.27848 67.7603 2.40773 69.2587 2.96979ZM59.1493 1.15998C60.822 1.22133 62.4238 1.80864 63.7341 2.834C62.4057 3.267 61.2169 4.03012 60.254 5.07026L60.2491 5.06839L60.2454 5.0725C58.9032 4.60378 57.4613 4.52634 56.0257 4.84375C56.6325 3.33302 57.7209 2.04525 59.1493 1.15998Z" fill="white"/>
<path fill-rule="evenodd" clip-rule="evenodd" d="M71.4491 9.52698C72.5089 10.7074 73.2039 12.168 73.4669 13.7453C74.7554 10.5853 73.782 6.92318 71.0982 4.81991C71.6487 6.31904 71.7736 7.94723 71.4491 9.52698ZM59.4124 7.92372L59.4048 7.93663C59.4635 7.91568 59.5246 7.89436 59.5881 7.87247C59.6107 7.86462 59.6344 7.85658 59.6576 7.84872C59.7064 7.83207 59.756 7.81524 59.8075 7.79803C59.8374 7.78812 59.8682 7.77783 59.8989 7.76792C59.9468 7.75202 59.9956 7.73612 60.0457 7.71985C60.0785 7.70937 60.1114 7.6989 60.1451 7.68805C60.1963 7.67197 60.2485 7.65551 60.3014 7.63923C60.3358 7.62857 60.3695 7.6181 60.4045 7.60744C60.4625 7.58986 60.5219 7.57209 60.5818 7.55432C60.613 7.54515 60.6433 7.53599 60.6749 7.52682C60.767 7.50008 60.8607 7.47314 60.9568 7.44658C60.9735 7.44078 60.9903 7.43611 61.0071 7.43237C61.1708 7.3871 61.3331 7.34483 61.4947 7.30406C61.5144 7.29901 61.5346 7.29321 61.5542 7.28835C61.5686 7.28479 61.5827 7.28199 61.5969 7.27843L61.598 7.27806C61.7551 7.23934 61.9115 7.20231 62.0665 7.16789C62.0744 7.16621 62.0821 7.16415 62.0899 7.16247C62.0907 7.16228 62.0912 7.16209 62.092 7.16191C62.1095 7.15816 62.1266 7.15498 62.144 7.15124C62.2152 7.13572 62.2869 7.11982 62.3576 7.10523C62.3402 7.09195 62.3231 7.07923 62.3058 7.06595C62.2605 7.03191 62.2152 6.99787 62.1705 6.96476C62.1453 6.94606 62.1202 6.92754 62.095 6.90903C62.051 6.87686 62.0074 6.84525 61.9642 6.8142C61.9405 6.79718 61.9167 6.77997 61.8931 6.76332C61.8468 6.7304 61.8007 6.69823 61.7549 6.66662C61.7358 6.65315 61.7162 6.6395 61.6971 6.62622C61.6326 6.58208 61.5688 6.53887 61.5062 6.49754C61.413 6.43619 61.3184 6.37764 61.2224 6.32078C61.1917 6.30264 61.1603 6.28543 61.1293 6.26766C61.0629 6.22988 60.9963 6.19285 60.9288 6.15731C60.8928 6.13823 60.8567 6.1199 60.8203 6.10157C60.755 6.06865 60.689 6.03685 60.6228 6.00618C60.587 5.98953 60.5515 5.97307 60.5156 5.95718C60.4984 5.94951 60.4808 5.94259 60.4634 5.9351C60.4477 5.95437 60.4316 5.97289 60.4161 5.99234C60.3878 6.02769 60.36 6.0636 60.3323 6.0997C60.2848 6.16142 60.2378 6.22408 60.192 6.28749C60.1653 6.32396 60.1389 6.36081 60.1127 6.39784C60.0648 6.4663 60.0184 6.53569 59.9726 6.60565C59.9513 6.63838 59.9292 6.67055 59.9081 6.70366C59.8426 6.8069 59.7786 6.91146 59.7175 7.01788C59.6765 7.08933 59.6361 7.16247 59.5961 7.23654C59.5836 7.25954 59.5712 7.2833 59.5587 7.30667C59.5314 7.35849 59.5039 7.41048 59.4769 7.46323C59.4625 7.49128 59.4483 7.51971 59.4341 7.54796C59.4091 7.59771 59.3844 7.64784 59.3599 7.69871C59.3455 7.72827 59.3311 7.75819 59.3167 7.78831C59.2922 7.83974 59.2682 7.89211 59.2441 7.94467C59.2362 7.96188 59.2284 7.9789 59.2207 7.99611L59.4124 7.92372ZM65.2221 3.22809C66.2049 4.30751 66.8717 5.6181 67.1356 6.99697L67.1404 6.9979L67.1412 7.00258C68.524 7.31643 69.78 7.96472 70.8192 8.89917C71.0528 7.25209 70.7608 5.57153 69.9767 4.09185C68.4946 3.29636 66.8343 2.99729 65.2221 3.22809ZM61.215 5.4881C61.2139 5.48754 61.213 5.48698 61.2118 5.48642C61.132 5.44527 61.0516 5.40543 60.9704 5.36728C61.9179 4.41243 63.0852 3.73834 64.3799 3.39867C65.372 4.36754 66.0652 5.57676 66.3678 6.86267C66.3055 6.85444 66.2429 6.84789 66.18 6.84097C66.091 6.83106 66.0018 6.82264 65.912 6.81553C65.8471 6.8103 65.7824 6.80543 65.7171 6.80169C65.6608 6.79851 65.6045 6.79571 65.548 6.79365C65.4405 6.78953 65.3327 6.78748 65.2246 6.78766C65.2175 6.78766 65.2104 6.7871 65.2033 6.7871H65.1863C65.035 6.78748 64.8797 6.79141 64.7222 6.79833C64.6714 6.80038 64.6186 6.80468 64.5674 6.80768C64.4591 6.81385 64.351 6.82002 64.2402 6.82919C64.1766 6.83442 64.1112 6.84172 64.0465 6.84808C63.9458 6.8578 63.845 6.86753 63.7425 6.87969C63.6714 6.88811 63.5996 6.89839 63.5278 6.90793C63.4567 6.91728 63.3869 6.92514 63.3151 6.9358C63.3075 6.92963 63.3002 6.92402 63.2927 6.91803C63.1836 6.83012 63.0761 6.74502 62.9698 6.66253C62.9526 6.64907 62.9354 6.6356 62.918 6.62232C62.8118 6.54021 62.7065 6.46034 62.6032 6.38384C62.5885 6.37299 62.5739 6.36233 62.5593 6.35148C62.454 6.27368 62.3498 6.19849 62.2477 6.12685C62.2381 6.12012 62.229 6.11376 62.2194 6.10702C62.1126 6.03239 62.0077 5.96057 61.905 5.89286C61.8055 5.82702 61.704 5.76455 61.6015 5.70376C61.5756 5.68861 61.5502 5.67346 61.5242 5.6585C61.4223 5.59958 61.3194 5.54216 61.215 5.4881Z" fill="white"/>
<path fill-rule="evenodd" clip-rule="evenodd" d="M57.9539 16.4444C58.025 16.4521 58.0962 16.4594 58.1679 16.4652C58.1986 16.4678 58.2294 16.4697 58.2603 16.4717C58.4597 16.4857 58.6607 16.4938 58.8637 16.4951C58.9965 16.4949 59.1334 16.4912 59.2718 16.4854C59.2961 16.4843 59.3201 16.4835 59.3446 16.4824C59.4783 16.4758 59.6148 16.467 59.7536 16.4554C59.7807 16.4532 59.8079 16.4508 59.835 16.4483C59.8786 16.4444 59.9236 16.4388 59.9678 16.4345C59.9356 16.4074 59.9012 16.3782 59.8672 16.349C59.8539 16.3378 59.8417 16.3275 59.8282 16.3161C59.7736 16.2695 59.7171 16.2207 59.6588 16.17C59.6403 16.1537 59.6204 16.1364 59.6016 16.1197C59.56 16.0834 59.5183 16.0468 59.4753 16.0084C59.451 15.9869 59.4261 15.9647 59.4012 15.9424C59.3612 15.9067 59.321 15.8704 59.2798 15.833C59.2533 15.809 59.2267 15.7849 59.1998 15.7602C59.1579 15.7221 59.1158 15.683 59.073 15.6433C59.046 15.6183 59.0191 15.5934 58.9918 15.5678C58.9454 15.5244 58.8985 15.4798 58.8511 15.435C58.8266 15.4118 58.8025 15.3889 58.778 15.3654C58.706 15.2964 58.6334 15.226 58.5599 15.1538C58.441 15.0366 58.3252 14.9187 58.2109 14.8005C58.1866 14.7754 58.1621 14.7502 58.138 14.7251C58.0278 14.6099 57.9191 14.4945 57.8134 14.3791C57.7951 14.3591 57.7777 14.3391 57.7594 14.3193C57.7126 14.2674 57.6653 14.2156 57.6193 14.164C57.6163 14.1868 57.6137 14.2095 57.6109 14.2321C57.604 14.2876 57.5972 14.3428 57.5911 14.3971C57.5873 14.429 57.5838 14.4607 57.5804 14.4921C57.5746 14.5456 57.569 14.5983 57.5637 14.6505C57.5608 14.6804 57.5578 14.7104 57.555 14.7399C57.5497 14.7953 57.545 14.8497 57.5405 14.9036C57.5385 14.9281 57.5364 14.9529 57.5344 14.9773C57.5286 15.0545 57.523 15.1304 57.5187 15.2047C57.5119 15.3171 57.5086 15.4292 57.5073 15.5408C57.5069 15.5769 57.5078 15.6126 57.508 15.6487C57.5084 15.7252 57.5097 15.8016 57.5127 15.8777C57.5142 15.9185 57.5164 15.959 57.5187 15.9996C57.5228 16.0722 57.5284 16.1446 57.5349 16.2168C57.5383 16.2562 57.5419 16.2957 57.546 16.335C57.548 16.3533 57.551 16.3713 57.5531 16.3896C57.5759 16.3933 57.5982 16.3977 57.6208 16.4012C57.6713 16.4091 57.7224 16.4158 57.7732 16.4225C57.8333 16.4306 57.8937 16.4377 57.9539 16.4444ZM56.7838 15.5216C56.7855 15.4021 56.7886 15.2822 56.7959 15.1623C56.7999 15.0948 56.8047 15.0261 56.8098 14.9565C56.8117 14.9333 56.8137 14.9096 56.8156 14.8862C56.8193 14.8391 56.8231 14.7919 56.8275 14.7439C56.83 14.7152 56.833 14.6859 56.8358 14.6569C56.8399 14.6133 56.8442 14.5695 56.8487 14.525C56.8519 14.4932 56.8556 14.4611 56.8592 14.4287C56.8636 14.3859 56.8683 14.3429 56.8736 14.2993C56.8773 14.2654 56.8816 14.2312 56.8857 14.1968C56.891 14.1541 56.8962 14.1113 56.9016 14.0681C56.9065 14.0324 56.9112 13.9963 56.9158 13.96C56.9218 13.9168 56.9276 13.8734 56.9336 13.8296C56.9388 13.7928 56.9441 13.7557 56.9495 13.7183C56.9559 13.6746 56.9622 13.6306 56.969 13.5863C56.9749 13.5477 56.9807 13.5094 56.9867 13.4705C56.9893 13.4537 56.9918 13.437 56.9944 13.4202C56.988 13.4121 56.9824 13.4043 56.9761 13.3962C56.8865 13.2827 56.7997 13.1695 56.7155 13.0564C56.7019 13.0381 56.6882 13.0197 56.6745 13.0012C56.5909 12.8875 56.5098 12.7743 56.4316 12.6612C56.4204 12.6449 56.4093 12.6286 56.3983 12.6122C56.3192 12.4966 56.2427 12.3814 56.1695 12.2667C56.1624 12.2557 56.1559 12.2446 56.149 12.2336C56.0728 12.1133 55.9997 11.9936 55.9305 11.8745C55.8656 11.7628 55.8042 11.6495 55.7448 11.5356C55.7291 11.5056 55.7137 11.4757 55.6984 11.4456C55.6464 11.3438 55.5963 11.2415 55.5486 11.1383C55.5422 11.1244 55.5351 11.1106 55.5287 11.0968C55.4859 11.0025 55.4444 10.9078 55.4049 10.8125C54.4418 11.7183 53.741 12.9234 53.3987 14.2671C54.3414 15.2184 55.5087 15.8919 56.8079 16.2342C56.7907 16.0285 56.7832 15.8207 56.7832 15.6117C56.7832 15.5968 56.7823 15.582 56.7823 15.5668C56.7825 15.5519 56.7836 15.5367 56.7838 15.5216ZM55.1378 10.0796L55.136 10.0744L55.1399 10.0712C54.7209 8.71738 54.6545 7.30597 54.9431 5.93889C53.4002 6.56136 52.0906 7.65462 51.2012 9.07201C51.2526 10.7505 51.8242 12.3391 52.8303 13.6214C53.2732 12.2311 54.0749 10.9982 55.1378 10.0796ZM51.2728 7.74157C51.752 4.36511 54.4366 1.6908 57.818 1.22656C56.5844 2.24257 55.667 3.57449 55.1734 5.08278C53.6441 5.59247 52.2976 6.51421 51.2728 7.74157Z" fill="white"/>
<path fill-rule="evenodd" clip-rule="evenodd" d="M68.9151 13.9273L68.9169 13.9326L68.9128 13.9358C69.332 15.2899 69.3982 16.7017 69.109 18.0692C70.6525 17.4467 71.9625 16.3535 72.8517 14.9362C72.8001 13.2566 72.2285 11.6683 71.2217 10.387C70.7787 11.7769 69.9775 13.0092 68.9151 13.9273ZM66.4189 7.60281C66.382 7.5972 66.345 7.59233 66.3081 7.58728C66.2206 7.57531 66.1325 7.56503 66.0438 7.55605C66.0083 7.55249 65.9729 7.54875 65.9372 7.54557C65.845 7.53753 65.7524 7.53136 65.6595 7.52612C65.6267 7.52444 65.5944 7.52201 65.5618 7.52051C65.4378 7.51509 65.3133 7.51191 65.1887 7.51172C65.0555 7.51191 64.9184 7.51583 64.7798 7.52144C64.7553 7.52257 64.7312 7.52332 64.7065 7.52444C64.5728 7.53098 64.4362 7.53996 64.2978 7.55137C64.2705 7.55362 64.2432 7.55623 64.2159 7.55867C64.1757 7.56222 64.1343 7.56746 64.0938 7.57138L64.2271 7.68043H64.2133C64.2161 7.68305 64.2193 7.68567 64.2221 7.6881C64.2767 7.73467 64.3335 7.78368 64.3923 7.83474C64.4091 7.84933 64.4269 7.86504 64.4441 7.88019C64.4871 7.91778 64.5307 7.95594 64.5756 7.99578C64.5993 8.01692 64.6236 8.03861 64.648 8.06031C64.6884 8.0966 64.7291 8.13326 64.7708 8.17104C64.7972 8.19479 64.8236 8.21892 64.8505 8.24342C64.8926 8.28195 64.9352 8.32142 64.9785 8.36145C65.0054 8.38632 65.0319 8.41101 65.0591 8.43626C65.1062 8.4804 65.1539 8.52567 65.202 8.57131C65.2209 8.58926 65.2392 8.60628 65.2583 8.62442C65.2633 8.62947 65.2687 8.63471 65.274 8.63958C65.3451 8.70803 65.4173 8.77799 65.4904 8.84962L65.4939 8.85318C65.4956 8.85505 65.4975 8.85673 65.4992 8.8586C65.6168 8.97457 65.7311 9.0909 65.8441 9.20762C65.8682 9.23249 65.8925 9.25756 65.9165 9.28243C66.0272 9.39803 66.1357 9.5138 66.2415 9.62958C66.2599 9.64941 66.2776 9.66942 66.2954 9.68925C66.3418 9.74031 66.3886 9.79119 66.4336 9.84206C66.4364 9.81924 66.4391 9.79698 66.442 9.77454C66.4488 9.71899 66.4555 9.664 66.4617 9.60976C66.4656 9.57571 66.4692 9.54223 66.4729 9.50857C66.4785 9.45788 66.4836 9.40794 66.4886 9.35837C66.4918 9.32583 66.4952 9.29328 66.498 9.2613C66.503 9.2093 66.5073 9.15843 66.5116 9.10774C66.5137 9.08043 66.5163 9.05256 66.5184 9.02563C66.5243 8.94931 66.5296 8.87412 66.5341 8.80099C66.5408 8.68877 66.544 8.57654 66.5451 8.46469C66.5455 8.42878 66.5447 8.39306 66.5445 8.35733C66.5444 8.28046 66.5431 8.20396 66.5401 8.12783C66.5384 8.08724 66.5363 8.04684 66.5341 8.00663C66.5298 7.93331 66.5243 7.86036 66.5178 7.78779C66.5141 7.74907 66.5109 7.71036 66.5066 7.67183C66.5047 7.65312 66.5017 7.63498 66.4995 7.61646C66.4725 7.61216 66.4458 7.60674 66.4189 7.60281ZM67.2717 8.39526C67.2717 8.41022 67.2728 8.425 67.2726 8.44015C67.2726 8.45511 67.2713 8.47026 67.2711 8.48541C67.2698 8.60493 67.2664 8.72483 67.2593 8.84491C67.2591 8.84659 67.2591 8.84846 67.259 8.85014C67.255 8.91561 67.2504 8.9822 67.2455 9.05009C67.2438 9.07048 67.2419 9.09161 67.2403 9.11219C67.2363 9.16175 67.2322 9.21169 67.2277 9.26257C67.2255 9.28819 67.2229 9.31457 67.2204 9.34038C67.2161 9.38714 67.2114 9.43409 67.2066 9.48197C67.2036 9.51096 67.2004 9.5407 67.197 9.57006C67.1924 9.61552 67.1873 9.66097 67.1819 9.70717C67.1782 9.73934 67.1742 9.77188 67.1703 9.80424C67.1649 9.84894 67.1596 9.89365 67.1538 9.93891C67.1494 9.97351 67.1449 10.0085 67.14 10.0435C67.1342 10.0878 67.1282 10.1323 67.122 10.1772C67.117 10.2135 67.1119 10.2501 67.1067 10.2868C67.1002 10.3315 67.0936 10.3766 67.0867 10.4218C67.0811 10.46 67.0755 10.4982 67.0695 10.5367C67.0669 10.5541 67.0644 10.5711 67.0616 10.5887C67.073 10.6029 67.0839 10.6175 67.0953 10.6317C67.1202 10.6633 67.1447 10.6949 67.1692 10.7265C67.1976 10.7632 67.2259 10.8002 67.2541 10.8369C67.2775 10.8679 67.3009 10.8988 67.3239 10.9297C67.3517 10.9671 67.3796 11.0045 67.4069 11.0419C67.429 11.0722 67.451 11.1023 67.4727 11.1324C67.5002 11.1706 67.5274 11.2085 67.5541 11.2467C67.5749 11.2761 67.5956 11.3054 67.616 11.335C67.6428 11.3735 67.6688 11.412 67.6949 11.4506C67.7146 11.4794 67.734 11.508 67.7533 11.5368C67.7799 11.5768 67.8057 11.6167 67.8317 11.6565C67.8489 11.6833 67.8667 11.71 67.8837 11.7369C67.9119 11.7811 67.9392 11.8252 67.9665 11.8694C67.9802 11.8914 67.9946 11.9137 68.0081 11.9358C68.0483 12.002 68.0875 12.0678 68.1257 12.1335C68.1906 12.2449 68.2518 12.3579 68.3114 12.4716C68.3271 12.5016 68.3427 12.5317 68.358 12.5618C68.4094 12.663 68.4594 12.7645 68.5069 12.867C68.5136 12.8816 68.5207 12.8958 68.5275 12.9104C68.5705 13.0049 68.612 13.0999 68.6515 13.1953C69.6248 12.2855 70.3113 11.1032 70.6567 9.74177C69.7152 8.79029 68.548 8.11657 67.2474 7.77298C67.2547 7.86051 67.2603 7.94842 67.2644 8.03652C67.2644 8.03726 67.2646 8.03783 67.2646 8.03839C67.2702 8.15678 67.2719 8.27593 67.2717 8.39526ZM72.7786 16.2661C72.2992 19.6431 69.6135 22.3176 66.2316 22.7811C67.4668 21.7649 68.3848 20.433 68.8775 18.9247C70.4069 18.4152 71.7541 17.4934 72.7786 16.2661Z" fill="white"/>
</svg>
