<svg width="24" height="24" viewBox="0 0 24 24" fill="none" xmlns="http://www.w3.org/2000/svg">
<path d="M10.5534 17.7527C10.5534 17.7822 10.5534 17.8191 10.537 17.8396C10.4264 17.9823 10.2948 18.1013 10.1221 18.1645C9.97197 18.2193 9.85243 18.1524 9.82083 17.9965C9.80819 17.9349 9.80766 17.8701 9.80766 17.8069C9.80714 16.6457 9.80398 14.2649 9.8024 14.2359H8.94558C8.94558 14.268 8.94452 17.5847 8.94663 18.2114C8.94716 18.381 8.96506 18.5495 9.03563 18.7069C9.11146 18.8776 9.23733 18.9855 9.42481 19.0166C9.56225 19.0403 9.69654 19.025 9.82715 18.9803C10.0947 18.8881 10.3043 18.7143 10.4891 18.5058C10.5054 18.4873 10.5228 18.4694 10.5539 18.4363V18.9566H11.4128V16.68C11.4128 15.8911 11.4128 14.2285 11.4128 14.2285L10.5534 14.2306V17.7527Z" fill="#F5F3EA"/>
<path d="M14.6143 14.6054C14.4331 14.2194 14.0524 14.1172 13.7222 14.1999C13.5221 14.2504 13.3599 14.3658 13.2266 14.5148C13.1824 14.5648 13.1339 14.6617 13.1339 14.6617C13.1339 14.6617 13.1339 13.2361 13.1339 12.5547H12.2734V18.9558H13.1339V18.5967C13.1339 18.5967 13.195 18.6614 13.2172 18.6851C13.4146 18.8995 13.6543 19.0169 13.9497 19.0196C14.3131 19.0232 14.5658 18.8473 14.6806 18.5019C14.7338 18.3413 14.7512 18.1759 14.7517 18.0084C14.7528 17.1137 14.7528 16.219 14.7512 15.3242C14.7512 15.0767 14.7212 14.8335 14.6143 14.6054ZM13.8654 17.9016C13.8654 17.9495 13.8596 17.998 13.8496 18.0448C13.8101 18.2323 13.6674 18.3166 13.4652 18.275C13.3425 18.2497 13.2466 18.1791 13.1645 18.0901C13.1608 18.0859 13.1366 18.0532 13.1366 18.0532V17.9832L13.1345 15.141C13.1345 15.141 13.1529 15.0883 13.1935 15.0531C13.2946 14.9635 13.4062 14.9072 13.5458 14.9209C13.6648 14.9325 13.7596 14.9872 13.8038 15.0973C13.837 15.181 13.8633 15.2742 13.8638 15.3638C13.8681 16.2095 13.8665 17.0552 13.8654 17.9016Z" fill="#F5F3EA"/>
<path d="M11.5201 9.02552C11.7207 9.02552 11.8839 8.86232 11.8839 8.66167V6.09432C11.8839 5.89367 11.7207 5.73047 11.5201 5.73047C11.3195 5.73047 11.1563 5.89372 11.1563 6.09432V8.66167C11.1562 8.86226 11.3195 9.02552 11.5201 9.02552Z" fill="#F5F3EA"/>
<path d="M8.9475 12.5547H5.9668V13.472H6.97107V18.9558H7.94112V13.4699H8.9475V12.5547Z" fill="#F5F3EA"/>
<path d="M17.0731 17.2772V17.8844C17.0731 18.0967 16.9014 18.2683 16.6897 18.2683C16.4775 18.2683 16.3058 18.0967 16.3058 17.8844V16.7032H17.9536C17.9536 16.7032 17.9631 15.879 17.9563 15.5051C17.9536 15.3456 17.9415 15.1839 17.9089 15.028C17.8235 14.6235 17.606 14.3186 17.199 14.1849C17.0794 14.1454 16.9509 14.1248 16.8251 14.1169C16.4064 14.0901 16.0399 14.2096 15.7534 14.5303C15.5022 14.811 15.4148 15.1491 15.4142 15.5157C15.4126 16.2166 15.4095 16.9181 15.4163 17.619C15.4184 17.7975 15.4385 17.9797 15.479 18.1535C15.5664 18.5269 15.7702 18.8202 16.1299 18.9824C16.3927 19.1015 16.6702 19.1072 16.9504 19.0662C17.4022 18.9998 17.7103 18.7576 17.8594 18.321C17.9715 17.994 17.9584 17.2772 17.9584 17.2772H17.0731ZM16.3058 15.3077C16.3058 15.096 16.4775 14.9238 16.6897 14.9238C16.9014 14.9238 17.0731 15.096 17.0731 15.3077V15.9707H16.3058V15.3077Z" fill="#F5F3EA"/>
<path d="M0 0V24H24V0H0ZM13.5203 5.00242H14.3943V8.62672C14.3943 8.67475 14.3982 8.7233 14.4066 8.77038C14.4331 8.91974 14.5435 8.99004 14.6873 8.94017C14.8627 8.8795 14.9965 8.75811 15.1099 8.61508C15.126 8.59465 15.1231 8.55652 15.1231 8.52656V5.00242H16.0034L16.0032 9.75491H15.1226L15.1237 9.24435C15.0263 9.34025 14.9432 9.42983 14.8519 9.51029C14.69 9.65291 14.5066 9.75923 14.2921 9.8012C13.9628 9.86556 13.6823 9.7615 13.5773 9.42045C13.5424 9.30686 13.5212 9.18442 13.5203 9.06582V5.00242ZM11.5201 4.88346C12.2165 4.88346 12.7811 5.448 12.7811 6.14441V8.61213C12.7811 9.30854 12.2165 9.87309 11.5201 9.87309C10.8237 9.87309 10.2592 9.30854 10.2592 8.61213V6.14441C10.2591 5.448 10.8236 4.88346 11.5201 4.88346ZM8.12811 3.32143C8.12811 3.32143 8.52861 5.02249 8.71978 5.82828H8.72009C8.91126 5.02249 9.31176 3.32143 9.31176 3.32143H10.3139C10.3139 3.32143 9.54395 5.87489 9.19964 7.01366C9.18721 7.05479 9.18157 7.09956 9.18157 7.14269L9.182 9.75391H8.25792L8.25829 7.14269C8.25829 7.09956 8.25261 7.05485 8.24023 7.01366C7.89592 5.87489 7.12599 3.32143 7.12599 3.32143H8.12811ZM19.147 18.4775C19.147 19.6455 18.2139 20.5998 17.0463 20.6245C13.6828 20.6967 10.3176 20.6967 6.95352 20.6245C5.78652 20.5998 4.85334 19.6455 4.85334 18.4775V13.2239C4.85334 12.0563 5.78652 11.1021 6.95352 11.0773C10.3176 11.0052 13.6828 11.0052 17.0463 11.0773C18.2139 11.1021 19.147 12.0563 19.147 13.2239V18.4775Z" fill="#F5F3EA"/>
</svg>
